G04 #@! TF.GenerationSoftware,KiCad,Pcbnew,7.0.7*
G04 #@! TF.CreationDate,2024-04-04T13:45:20+09:00*
G04 #@! TF.ProjectId,raspberrypi_zerow_uhat,72617370-6265-4727-9279-70695f7a6572,1.0*
G04 #@! TF.SameCoordinates,Original*
G04 #@! TF.FileFunction,Paste,Bot*
G04 #@! TF.FilePolarity,Positive*
%FSLAX46Y46*%
G04 Gerber Fmt 4.6, Leading zero omitted, Abs format (unit mm)*
G04 Created by KiCad (PCBNEW 7.0.7) date 2024-04-04 13:45:20*
%MOMM*%
%LPD*%
G01*
G04 APERTURE LIST*
%ADD10C,0.100000*%
%ADD11C,0.150000*%
%ADD12C,0.300000*%
%ADD13C,0.400000*%
G04 APERTURE END LIST*
D10*
D11*
X177002200Y-166007200D02*
X285002200Y-166007200D01*
X285002200Y-198007200D01*
X177002200Y-198007200D01*
X177002200Y-166007200D01*
D10*
D11*
X10000000Y-10000000D02*
X287002200Y-10000000D01*
X287002200Y-200007200D01*
X10000000Y-200007200D01*
X10000000Y-10000000D01*
D10*
D11*
X12000000Y-12000000D02*
X285002200Y-12000000D01*
X285002200Y-198007200D01*
X12000000Y-198007200D01*
X12000000Y-12000000D01*
D10*
D11*
X60000000Y-12000000D02*
X60000000Y-10000000D01*
D10*
D11*
X110000000Y-12000000D02*
X110000000Y-10000000D01*
D10*
D11*
X160000000Y-12000000D02*
X160000000Y-10000000D01*
D10*
D11*
X210000000Y-12000000D02*
X210000000Y-10000000D01*
D10*
D11*
X260000000Y-12000000D02*
X260000000Y-10000000D01*
D10*
D11*
X36089160Y-11593604D02*
X35346303Y-11593604D01*
X35717731Y-11593604D02*
X35717731Y-10293604D01*
X35717731Y-10293604D02*
X35593922Y-10479319D01*
X35593922Y-10479319D02*
X35470112Y-10603128D01*
X35470112Y-10603128D02*
X35346303Y-10665033D01*
D10*
D11*
X85346303Y-10417414D02*
X85408207Y-10355509D01*
X85408207Y-10355509D02*
X85532017Y-10293604D01*
X85532017Y-10293604D02*
X85841541Y-10293604D01*
X85841541Y-10293604D02*
X85965350Y-10355509D01*
X85965350Y-10355509D02*
X86027255Y-10417414D01*
X86027255Y-10417414D02*
X86089160Y-10541223D01*
X86089160Y-10541223D02*
X86089160Y-10665033D01*
X86089160Y-10665033D02*
X86027255Y-10850747D01*
X86027255Y-10850747D02*
X85284398Y-11593604D01*
X85284398Y-11593604D02*
X86089160Y-11593604D01*
D10*
D11*
X135284398Y-10293604D02*
X136089160Y-10293604D01*
X136089160Y-10293604D02*
X135655826Y-10788842D01*
X135655826Y-10788842D02*
X135841541Y-10788842D01*
X135841541Y-10788842D02*
X135965350Y-10850747D01*
X135965350Y-10850747D02*
X136027255Y-10912652D01*
X136027255Y-10912652D02*
X136089160Y-11036461D01*
X136089160Y-11036461D02*
X136089160Y-11345985D01*
X136089160Y-11345985D02*
X136027255Y-11469795D01*
X136027255Y-11469795D02*
X135965350Y-11531700D01*
X135965350Y-11531700D02*
X135841541Y-11593604D01*
X135841541Y-11593604D02*
X135470112Y-11593604D01*
X135470112Y-11593604D02*
X135346303Y-11531700D01*
X135346303Y-11531700D02*
X135284398Y-11469795D01*
D10*
D11*
X185965350Y-10726938D02*
X185965350Y-11593604D01*
X185655826Y-10231700D02*
X185346303Y-11160271D01*
X185346303Y-11160271D02*
X186151064Y-11160271D01*
D10*
D11*
X236027255Y-10293604D02*
X235408207Y-10293604D01*
X235408207Y-10293604D02*
X235346303Y-10912652D01*
X235346303Y-10912652D02*
X235408207Y-10850747D01*
X235408207Y-10850747D02*
X235532017Y-10788842D01*
X235532017Y-10788842D02*
X235841541Y-10788842D01*
X235841541Y-10788842D02*
X235965350Y-10850747D01*
X235965350Y-10850747D02*
X236027255Y-10912652D01*
X236027255Y-10912652D02*
X236089160Y-11036461D01*
X236089160Y-11036461D02*
X236089160Y-11345985D01*
X236089160Y-11345985D02*
X236027255Y-11469795D01*
X236027255Y-11469795D02*
X235965350Y-11531700D01*
X235965350Y-11531700D02*
X235841541Y-11593604D01*
X235841541Y-11593604D02*
X235532017Y-11593604D01*
X235532017Y-11593604D02*
X235408207Y-11531700D01*
X235408207Y-11531700D02*
X235346303Y-11469795D01*
D10*
D11*
X285965350Y-10293604D02*
X285717731Y-10293604D01*
X285717731Y-10293604D02*
X285593922Y-10355509D01*
X285593922Y-10355509D02*
X285532017Y-10417414D01*
X285532017Y-10417414D02*
X285408207Y-10603128D01*
X285408207Y-10603128D02*
X285346303Y-10850747D01*
X285346303Y-10850747D02*
X285346303Y-11345985D01*
X285346303Y-11345985D02*
X285408207Y-11469795D01*
X285408207Y-11469795D02*
X285470112Y-11531700D01*
X285470112Y-11531700D02*
X285593922Y-11593604D01*
X285593922Y-11593604D02*
X285841541Y-11593604D01*
X285841541Y-11593604D02*
X285965350Y-11531700D01*
X285965350Y-11531700D02*
X286027255Y-11469795D01*
X286027255Y-11469795D02*
X286089160Y-11345985D01*
X286089160Y-11345985D02*
X286089160Y-11036461D01*
X286089160Y-11036461D02*
X286027255Y-10912652D01*
X286027255Y-10912652D02*
X285965350Y-10850747D01*
X285965350Y-10850747D02*
X285841541Y-10788842D01*
X285841541Y-10788842D02*
X285593922Y-10788842D01*
X285593922Y-10788842D02*
X285470112Y-10850747D01*
X285470112Y-10850747D02*
X285408207Y-10912652D01*
X285408207Y-10912652D02*
X285346303Y-11036461D01*
D10*
D11*
X60000000Y-198007200D02*
X60000000Y-200007200D01*
D10*
D11*
X110000000Y-198007200D02*
X110000000Y-200007200D01*
D10*
D11*
X160000000Y-198007200D02*
X160000000Y-200007200D01*
D10*
D11*
X210000000Y-198007200D02*
X210000000Y-200007200D01*
D10*
D11*
X260000000Y-198007200D02*
X260000000Y-200007200D01*
D10*
D11*
X36089160Y-199600804D02*
X35346303Y-199600804D01*
X35717731Y-199600804D02*
X35717731Y-198300804D01*
X35717731Y-198300804D02*
X35593922Y-198486519D01*
X35593922Y-198486519D02*
X35470112Y-198610328D01*
X35470112Y-198610328D02*
X35346303Y-198672233D01*
D10*
D11*
X85346303Y-198424614D02*
X85408207Y-198362709D01*
X85408207Y-198362709D02*
X85532017Y-198300804D01*
X85532017Y-198300804D02*
X85841541Y-198300804D01*
X85841541Y-198300804D02*
X85965350Y-198362709D01*
X85965350Y-198362709D02*
X86027255Y-198424614D01*
X86027255Y-198424614D02*
X86089160Y-198548423D01*
X86089160Y-198548423D02*
X86089160Y-198672233D01*
X86089160Y-198672233D02*
X86027255Y-198857947D01*
X86027255Y-198857947D02*
X85284398Y-199600804D01*
X85284398Y-199600804D02*
X86089160Y-199600804D01*
D10*
D11*
X135284398Y-198300804D02*
X136089160Y-198300804D01*
X136089160Y-198300804D02*
X135655826Y-198796042D01*
X135655826Y-198796042D02*
X135841541Y-198796042D01*
X135841541Y-198796042D02*
X135965350Y-198857947D01*
X135965350Y-198857947D02*
X136027255Y-198919852D01*
X136027255Y-198919852D02*
X136089160Y-199043661D01*
X136089160Y-199043661D02*
X136089160Y-199353185D01*
X136089160Y-199353185D02*
X136027255Y-199476995D01*
X136027255Y-199476995D02*
X135965350Y-199538900D01*
X135965350Y-199538900D02*
X135841541Y-199600804D01*
X135841541Y-199600804D02*
X135470112Y-199600804D01*
X135470112Y-199600804D02*
X135346303Y-199538900D01*
X135346303Y-199538900D02*
X135284398Y-199476995D01*
D10*
D11*
X185965350Y-198734138D02*
X185965350Y-199600804D01*
X185655826Y-198238900D02*
X185346303Y-199167471D01*
X185346303Y-199167471D02*
X186151064Y-199167471D01*
D10*
D11*
X236027255Y-198300804D02*
X235408207Y-198300804D01*
X235408207Y-198300804D02*
X235346303Y-198919852D01*
X235346303Y-198919852D02*
X235408207Y-198857947D01*
X235408207Y-198857947D02*
X235532017Y-198796042D01*
X235532017Y-198796042D02*
X235841541Y-198796042D01*
X235841541Y-198796042D02*
X235965350Y-198857947D01*
X235965350Y-198857947D02*
X236027255Y-198919852D01*
X236027255Y-198919852D02*
X236089160Y-199043661D01*
X236089160Y-199043661D02*
X236089160Y-199353185D01*
X236089160Y-199353185D02*
X236027255Y-199476995D01*
X236027255Y-199476995D02*
X235965350Y-199538900D01*
X235965350Y-199538900D02*
X235841541Y-199600804D01*
X235841541Y-199600804D02*
X235532017Y-199600804D01*
X235532017Y-199600804D02*
X235408207Y-199538900D01*
X235408207Y-199538900D02*
X235346303Y-199476995D01*
D10*
D11*
X285965350Y-198300804D02*
X285717731Y-198300804D01*
X285717731Y-198300804D02*
X285593922Y-198362709D01*
X285593922Y-198362709D02*
X285532017Y-198424614D01*
X285532017Y-198424614D02*
X285408207Y-198610328D01*
X285408207Y-198610328D02*
X285346303Y-198857947D01*
X285346303Y-198857947D02*
X285346303Y-199353185D01*
X285346303Y-199353185D02*
X285408207Y-199476995D01*
X285408207Y-199476995D02*
X285470112Y-199538900D01*
X285470112Y-199538900D02*
X285593922Y-199600804D01*
X285593922Y-199600804D02*
X285841541Y-199600804D01*
X285841541Y-199600804D02*
X285965350Y-199538900D01*
X285965350Y-199538900D02*
X286027255Y-199476995D01*
X286027255Y-199476995D02*
X286089160Y-199353185D01*
X286089160Y-199353185D02*
X286089160Y-199043661D01*
X286089160Y-199043661D02*
X286027255Y-198919852D01*
X286027255Y-198919852D02*
X285965350Y-198857947D01*
X285965350Y-198857947D02*
X285841541Y-198796042D01*
X285841541Y-198796042D02*
X285593922Y-198796042D01*
X285593922Y-198796042D02*
X285470112Y-198857947D01*
X285470112Y-198857947D02*
X285408207Y-198919852D01*
X285408207Y-198919852D02*
X285346303Y-199043661D01*
D10*
D11*
X10000000Y-60000000D02*
X12000000Y-60000000D01*
D10*
D11*
X10000000Y-110000000D02*
X12000000Y-110000000D01*
D10*
D11*
X10000000Y-160000000D02*
X12000000Y-160000000D01*
D10*
D11*
X10690476Y-35222176D02*
X11309523Y-35222176D01*
X10566666Y-35593604D02*
X10999999Y-34293604D01*
X10999999Y-34293604D02*
X11433333Y-35593604D01*
D10*
D11*
X11092857Y-84912652D02*
X11278571Y-84974557D01*
X11278571Y-84974557D02*
X11340476Y-85036461D01*
X11340476Y-85036461D02*
X11402380Y-85160271D01*
X11402380Y-85160271D02*
X11402380Y-85345985D01*
X11402380Y-85345985D02*
X11340476Y-85469795D01*
X11340476Y-85469795D02*
X11278571Y-85531700D01*
X11278571Y-85531700D02*
X11154761Y-85593604D01*
X11154761Y-85593604D02*
X10659523Y-85593604D01*
X10659523Y-85593604D02*
X10659523Y-84293604D01*
X10659523Y-84293604D02*
X11092857Y-84293604D01*
X11092857Y-84293604D02*
X11216666Y-84355509D01*
X11216666Y-84355509D02*
X11278571Y-84417414D01*
X11278571Y-84417414D02*
X11340476Y-84541223D01*
X11340476Y-84541223D02*
X11340476Y-84665033D01*
X11340476Y-84665033D02*
X11278571Y-84788842D01*
X11278571Y-84788842D02*
X11216666Y-84850747D01*
X11216666Y-84850747D02*
X11092857Y-84912652D01*
X11092857Y-84912652D02*
X10659523Y-84912652D01*
D10*
D11*
X11402380Y-135469795D02*
X11340476Y-135531700D01*
X11340476Y-135531700D02*
X11154761Y-135593604D01*
X11154761Y-135593604D02*
X11030952Y-135593604D01*
X11030952Y-135593604D02*
X10845238Y-135531700D01*
X10845238Y-135531700D02*
X10721428Y-135407890D01*
X10721428Y-135407890D02*
X10659523Y-135284080D01*
X10659523Y-135284080D02*
X10597619Y-135036461D01*
X10597619Y-135036461D02*
X10597619Y-134850747D01*
X10597619Y-134850747D02*
X10659523Y-134603128D01*
X10659523Y-134603128D02*
X10721428Y-134479319D01*
X10721428Y-134479319D02*
X10845238Y-134355509D01*
X10845238Y-134355509D02*
X11030952Y-134293604D01*
X11030952Y-134293604D02*
X11154761Y-134293604D01*
X11154761Y-134293604D02*
X11340476Y-134355509D01*
X11340476Y-134355509D02*
X11402380Y-134417414D01*
D10*
D11*
X10659523Y-185593604D02*
X10659523Y-184293604D01*
X10659523Y-184293604D02*
X10969047Y-184293604D01*
X10969047Y-184293604D02*
X11154761Y-184355509D01*
X11154761Y-184355509D02*
X11278571Y-184479319D01*
X11278571Y-184479319D02*
X11340476Y-184603128D01*
X11340476Y-184603128D02*
X11402380Y-184850747D01*
X11402380Y-184850747D02*
X11402380Y-185036461D01*
X11402380Y-185036461D02*
X11340476Y-185284080D01*
X11340476Y-185284080D02*
X11278571Y-185407890D01*
X11278571Y-185407890D02*
X11154761Y-185531700D01*
X11154761Y-185531700D02*
X10969047Y-185593604D01*
X10969047Y-185593604D02*
X10659523Y-185593604D01*
D10*
D11*
X287002200Y-60000000D02*
X285002200Y-60000000D01*
D10*
D11*
X287002200Y-110000000D02*
X285002200Y-110000000D01*
D10*
D11*
X287002200Y-160000000D02*
X285002200Y-160000000D01*
D10*
D11*
X285692676Y-35222176D02*
X286311723Y-35222176D01*
X285568866Y-35593604D02*
X286002199Y-34293604D01*
X286002199Y-34293604D02*
X286435533Y-35593604D01*
D10*
D11*
X286095057Y-84912652D02*
X286280771Y-84974557D01*
X286280771Y-84974557D02*
X286342676Y-85036461D01*
X286342676Y-85036461D02*
X286404580Y-85160271D01*
X286404580Y-85160271D02*
X286404580Y-85345985D01*
X286404580Y-85345985D02*
X286342676Y-85469795D01*
X286342676Y-85469795D02*
X286280771Y-85531700D01*
X286280771Y-85531700D02*
X286156961Y-85593604D01*
X286156961Y-85593604D02*
X285661723Y-85593604D01*
X285661723Y-85593604D02*
X285661723Y-84293604D01*
X285661723Y-84293604D02*
X286095057Y-84293604D01*
X286095057Y-84293604D02*
X286218866Y-84355509D01*
X286218866Y-84355509D02*
X286280771Y-84417414D01*
X286280771Y-84417414D02*
X286342676Y-84541223D01*
X286342676Y-84541223D02*
X286342676Y-84665033D01*
X286342676Y-84665033D02*
X286280771Y-84788842D01*
X286280771Y-84788842D02*
X286218866Y-84850747D01*
X286218866Y-84850747D02*
X286095057Y-84912652D01*
X286095057Y-84912652D02*
X285661723Y-84912652D01*
D10*
D11*
X286404580Y-135469795D02*
X286342676Y-135531700D01*
X286342676Y-135531700D02*
X286156961Y-135593604D01*
X286156961Y-135593604D02*
X286033152Y-135593604D01*
X286033152Y-135593604D02*
X285847438Y-135531700D01*
X285847438Y-135531700D02*
X285723628Y-135407890D01*
X285723628Y-135407890D02*
X285661723Y-135284080D01*
X285661723Y-135284080D02*
X285599819Y-135036461D01*
X285599819Y-135036461D02*
X285599819Y-134850747D01*
X285599819Y-134850747D02*
X285661723Y-134603128D01*
X285661723Y-134603128D02*
X285723628Y-134479319D01*
X285723628Y-134479319D02*
X285847438Y-134355509D01*
X285847438Y-134355509D02*
X286033152Y-134293604D01*
X286033152Y-134293604D02*
X286156961Y-134293604D01*
X286156961Y-134293604D02*
X286342676Y-134355509D01*
X286342676Y-134355509D02*
X286404580Y-134417414D01*
D10*
D11*
X285661723Y-185593604D02*
X285661723Y-184293604D01*
X285661723Y-184293604D02*
X285971247Y-184293604D01*
X285971247Y-184293604D02*
X286156961Y-184355509D01*
X286156961Y-184355509D02*
X286280771Y-184479319D01*
X286280771Y-184479319D02*
X286342676Y-184603128D01*
X286342676Y-184603128D02*
X286404580Y-184850747D01*
X286404580Y-184850747D02*
X286404580Y-185036461D01*
X286404580Y-185036461D02*
X286342676Y-185284080D01*
X286342676Y-185284080D02*
X286280771Y-185407890D01*
X286280771Y-185407890D02*
X286156961Y-185531700D01*
X286156961Y-185531700D02*
X285971247Y-185593604D01*
X285971247Y-185593604D02*
X285661723Y-185593604D01*
D10*
D11*
X200458026Y-193793328D02*
X200458026Y-192293328D01*
X200458026Y-192293328D02*
X200815169Y-192293328D01*
X200815169Y-192293328D02*
X201029455Y-192364757D01*
X201029455Y-192364757D02*
X201172312Y-192507614D01*
X201172312Y-192507614D02*
X201243741Y-192650471D01*
X201243741Y-192650471D02*
X201315169Y-192936185D01*
X201315169Y-192936185D02*
X201315169Y-193150471D01*
X201315169Y-193150471D02*
X201243741Y-193436185D01*
X201243741Y-193436185D02*
X201172312Y-193579042D01*
X201172312Y-193579042D02*
X201029455Y-193721900D01*
X201029455Y-193721900D02*
X200815169Y-193793328D01*
X200815169Y-193793328D02*
X200458026Y-193793328D01*
X202600884Y-193793328D02*
X202600884Y-193007614D01*
X202600884Y-193007614D02*
X202529455Y-192864757D01*
X202529455Y-192864757D02*
X202386598Y-192793328D01*
X202386598Y-192793328D02*
X202100884Y-192793328D01*
X202100884Y-192793328D02*
X201958026Y-192864757D01*
X202600884Y-193721900D02*
X202458026Y-193793328D01*
X202458026Y-193793328D02*
X202100884Y-193793328D01*
X202100884Y-193793328D02*
X201958026Y-193721900D01*
X201958026Y-193721900D02*
X201886598Y-193579042D01*
X201886598Y-193579042D02*
X201886598Y-193436185D01*
X201886598Y-193436185D02*
X201958026Y-193293328D01*
X201958026Y-193293328D02*
X202100884Y-193221900D01*
X202100884Y-193221900D02*
X202458026Y-193221900D01*
X202458026Y-193221900D02*
X202600884Y-193150471D01*
X203100884Y-192793328D02*
X203672312Y-192793328D01*
X203315169Y-192293328D02*
X203315169Y-193579042D01*
X203315169Y-193579042D02*
X203386598Y-193721900D01*
X203386598Y-193721900D02*
X203529455Y-193793328D01*
X203529455Y-193793328D02*
X203672312Y-193793328D01*
X204743741Y-193721900D02*
X204600884Y-193793328D01*
X204600884Y-193793328D02*
X204315170Y-193793328D01*
X204315170Y-193793328D02*
X204172312Y-193721900D01*
X204172312Y-193721900D02*
X204100884Y-193579042D01*
X204100884Y-193579042D02*
X204100884Y-193007614D01*
X204100884Y-193007614D02*
X204172312Y-192864757D01*
X204172312Y-192864757D02*
X204315170Y-192793328D01*
X204315170Y-192793328D02*
X204600884Y-192793328D01*
X204600884Y-192793328D02*
X204743741Y-192864757D01*
X204743741Y-192864757D02*
X204815170Y-193007614D01*
X204815170Y-193007614D02*
X204815170Y-193150471D01*
X204815170Y-193150471D02*
X204100884Y-193293328D01*
X205458026Y-193650471D02*
X205529455Y-193721900D01*
X205529455Y-193721900D02*
X205458026Y-193793328D01*
X205458026Y-193793328D02*
X205386598Y-193721900D01*
X205386598Y-193721900D02*
X205458026Y-193650471D01*
X205458026Y-193650471D02*
X205458026Y-193793328D01*
X205458026Y-192864757D02*
X205529455Y-192936185D01*
X205529455Y-192936185D02*
X205458026Y-193007614D01*
X205458026Y-193007614D02*
X205386598Y-192936185D01*
X205386598Y-192936185D02*
X205458026Y-192864757D01*
X205458026Y-192864757D02*
X205458026Y-193007614D01*
X207243741Y-192436185D02*
X207315169Y-192364757D01*
X207315169Y-192364757D02*
X207458027Y-192293328D01*
X207458027Y-192293328D02*
X207815169Y-192293328D01*
X207815169Y-192293328D02*
X207958027Y-192364757D01*
X207958027Y-192364757D02*
X208029455Y-192436185D01*
X208029455Y-192436185D02*
X208100884Y-192579042D01*
X208100884Y-192579042D02*
X208100884Y-192721900D01*
X208100884Y-192721900D02*
X208029455Y-192936185D01*
X208029455Y-192936185D02*
X207172312Y-193793328D01*
X207172312Y-193793328D02*
X208100884Y-193793328D01*
X209029455Y-192293328D02*
X209172312Y-192293328D01*
X209172312Y-192293328D02*
X209315169Y-192364757D01*
X209315169Y-192364757D02*
X209386598Y-192436185D01*
X209386598Y-192436185D02*
X209458026Y-192579042D01*
X209458026Y-192579042D02*
X209529455Y-192864757D01*
X209529455Y-192864757D02*
X209529455Y-193221900D01*
X209529455Y-193221900D02*
X209458026Y-193507614D01*
X209458026Y-193507614D02*
X209386598Y-193650471D01*
X209386598Y-193650471D02*
X209315169Y-193721900D01*
X209315169Y-193721900D02*
X209172312Y-193793328D01*
X209172312Y-193793328D02*
X209029455Y-193793328D01*
X209029455Y-193793328D02*
X208886598Y-193721900D01*
X208886598Y-193721900D02*
X208815169Y-193650471D01*
X208815169Y-193650471D02*
X208743740Y-193507614D01*
X208743740Y-193507614D02*
X208672312Y-193221900D01*
X208672312Y-193221900D02*
X208672312Y-192864757D01*
X208672312Y-192864757D02*
X208743740Y-192579042D01*
X208743740Y-192579042D02*
X208815169Y-192436185D01*
X208815169Y-192436185D02*
X208886598Y-192364757D01*
X208886598Y-192364757D02*
X209029455Y-192293328D01*
X210958026Y-193793328D02*
X210100883Y-193793328D01*
X210529454Y-193793328D02*
X210529454Y-192293328D01*
X210529454Y-192293328D02*
X210386597Y-192507614D01*
X210386597Y-192507614D02*
X210243740Y-192650471D01*
X210243740Y-192650471D02*
X210100883Y-192721900D01*
X211672311Y-193793328D02*
X211958025Y-193793328D01*
X211958025Y-193793328D02*
X212100882Y-193721900D01*
X212100882Y-193721900D02*
X212172311Y-193650471D01*
X212172311Y-193650471D02*
X212315168Y-193436185D01*
X212315168Y-193436185D02*
X212386597Y-193150471D01*
X212386597Y-193150471D02*
X212386597Y-192579042D01*
X212386597Y-192579042D02*
X212315168Y-192436185D01*
X212315168Y-192436185D02*
X212243740Y-192364757D01*
X212243740Y-192364757D02*
X212100882Y-192293328D01*
X212100882Y-192293328D02*
X211815168Y-192293328D01*
X211815168Y-192293328D02*
X211672311Y-192364757D01*
X211672311Y-192364757D02*
X211600882Y-192436185D01*
X211600882Y-192436185D02*
X211529454Y-192579042D01*
X211529454Y-192579042D02*
X211529454Y-192936185D01*
X211529454Y-192936185D02*
X211600882Y-193079042D01*
X211600882Y-193079042D02*
X211672311Y-193150471D01*
X211672311Y-193150471D02*
X211815168Y-193221900D01*
X211815168Y-193221900D02*
X212100882Y-193221900D01*
X212100882Y-193221900D02*
X212243740Y-193150471D01*
X212243740Y-193150471D02*
X212315168Y-193079042D01*
X212315168Y-193079042D02*
X212386597Y-192936185D01*
X213029453Y-193221900D02*
X214172311Y-193221900D01*
X215172311Y-192293328D02*
X215315168Y-192293328D01*
X215315168Y-192293328D02*
X215458025Y-192364757D01*
X215458025Y-192364757D02*
X215529454Y-192436185D01*
X215529454Y-192436185D02*
X215600882Y-192579042D01*
X215600882Y-192579042D02*
X215672311Y-192864757D01*
X215672311Y-192864757D02*
X215672311Y-193221900D01*
X215672311Y-193221900D02*
X215600882Y-193507614D01*
X215600882Y-193507614D02*
X215529454Y-193650471D01*
X215529454Y-193650471D02*
X215458025Y-193721900D01*
X215458025Y-193721900D02*
X215315168Y-193793328D01*
X215315168Y-193793328D02*
X215172311Y-193793328D01*
X215172311Y-193793328D02*
X215029454Y-193721900D01*
X215029454Y-193721900D02*
X214958025Y-193650471D01*
X214958025Y-193650471D02*
X214886596Y-193507614D01*
X214886596Y-193507614D02*
X214815168Y-193221900D01*
X214815168Y-193221900D02*
X214815168Y-192864757D01*
X214815168Y-192864757D02*
X214886596Y-192579042D01*
X214886596Y-192579042D02*
X214958025Y-192436185D01*
X214958025Y-192436185D02*
X215029454Y-192364757D01*
X215029454Y-192364757D02*
X215172311Y-192293328D01*
X216243739Y-192436185D02*
X216315167Y-192364757D01*
X216315167Y-192364757D02*
X216458025Y-192293328D01*
X216458025Y-192293328D02*
X216815167Y-192293328D01*
X216815167Y-192293328D02*
X216958025Y-192364757D01*
X216958025Y-192364757D02*
X217029453Y-192436185D01*
X217029453Y-192436185D02*
X217100882Y-192579042D01*
X217100882Y-192579042D02*
X217100882Y-192721900D01*
X217100882Y-192721900D02*
X217029453Y-192936185D01*
X217029453Y-192936185D02*
X216172310Y-193793328D01*
X216172310Y-193793328D02*
X217100882Y-193793328D01*
X217743738Y-193221900D02*
X218886596Y-193221900D01*
X219529453Y-192436185D02*
X219600881Y-192364757D01*
X219600881Y-192364757D02*
X219743739Y-192293328D01*
X219743739Y-192293328D02*
X220100881Y-192293328D01*
X220100881Y-192293328D02*
X220243739Y-192364757D01*
X220243739Y-192364757D02*
X220315167Y-192436185D01*
X220315167Y-192436185D02*
X220386596Y-192579042D01*
X220386596Y-192579042D02*
X220386596Y-192721900D01*
X220386596Y-192721900D02*
X220315167Y-192936185D01*
X220315167Y-192936185D02*
X219458024Y-193793328D01*
X219458024Y-193793328D02*
X220386596Y-193793328D01*
X221243738Y-192936185D02*
X221100881Y-192864757D01*
X221100881Y-192864757D02*
X221029452Y-192793328D01*
X221029452Y-192793328D02*
X220958024Y-192650471D01*
X220958024Y-192650471D02*
X220958024Y-192579042D01*
X220958024Y-192579042D02*
X221029452Y-192436185D01*
X221029452Y-192436185D02*
X221100881Y-192364757D01*
X221100881Y-192364757D02*
X221243738Y-192293328D01*
X221243738Y-192293328D02*
X221529452Y-192293328D01*
X221529452Y-192293328D02*
X221672310Y-192364757D01*
X221672310Y-192364757D02*
X221743738Y-192436185D01*
X221743738Y-192436185D02*
X221815167Y-192579042D01*
X221815167Y-192579042D02*
X221815167Y-192650471D01*
X221815167Y-192650471D02*
X221743738Y-192793328D01*
X221743738Y-192793328D02*
X221672310Y-192864757D01*
X221672310Y-192864757D02*
X221529452Y-192936185D01*
X221529452Y-192936185D02*
X221243738Y-192936185D01*
X221243738Y-192936185D02*
X221100881Y-193007614D01*
X221100881Y-193007614D02*
X221029452Y-193079042D01*
X221029452Y-193079042D02*
X220958024Y-193221900D01*
X220958024Y-193221900D02*
X220958024Y-193507614D01*
X220958024Y-193507614D02*
X221029452Y-193650471D01*
X221029452Y-193650471D02*
X221100881Y-193721900D01*
X221100881Y-193721900D02*
X221243738Y-193793328D01*
X221243738Y-193793328D02*
X221529452Y-193793328D01*
X221529452Y-193793328D02*
X221672310Y-193721900D01*
X221672310Y-193721900D02*
X221743738Y-193650471D01*
X221743738Y-193650471D02*
X221815167Y-193507614D01*
X221815167Y-193507614D02*
X221815167Y-193221900D01*
X221815167Y-193221900D02*
X221743738Y-193079042D01*
X221743738Y-193079042D02*
X221672310Y-193007614D01*
X221672310Y-193007614D02*
X221529452Y-192936185D01*
D10*
D11*
X177002200Y-194507200D02*
X285002200Y-194507200D01*
D10*
D11*
X178458026Y-196593328D02*
X178458026Y-195093328D01*
X179315169Y-196593328D02*
X178672312Y-195736185D01*
X179315169Y-195093328D02*
X178458026Y-195950471D01*
X179958026Y-196593328D02*
X179958026Y-195593328D01*
X179958026Y-195093328D02*
X179886598Y-195164757D01*
X179886598Y-195164757D02*
X179958026Y-195236185D01*
X179958026Y-195236185D02*
X180029455Y-195164757D01*
X180029455Y-195164757D02*
X179958026Y-195093328D01*
X179958026Y-195093328D02*
X179958026Y-195236185D01*
X181529455Y-196450471D02*
X181458027Y-196521900D01*
X181458027Y-196521900D02*
X181243741Y-196593328D01*
X181243741Y-196593328D02*
X181100884Y-196593328D01*
X181100884Y-196593328D02*
X180886598Y-196521900D01*
X180886598Y-196521900D02*
X180743741Y-196379042D01*
X180743741Y-196379042D02*
X180672312Y-196236185D01*
X180672312Y-196236185D02*
X180600884Y-195950471D01*
X180600884Y-195950471D02*
X180600884Y-195736185D01*
X180600884Y-195736185D02*
X180672312Y-195450471D01*
X180672312Y-195450471D02*
X180743741Y-195307614D01*
X180743741Y-195307614D02*
X180886598Y-195164757D01*
X180886598Y-195164757D02*
X181100884Y-195093328D01*
X181100884Y-195093328D02*
X181243741Y-195093328D01*
X181243741Y-195093328D02*
X181458027Y-195164757D01*
X181458027Y-195164757D02*
X181529455Y-195236185D01*
X182815170Y-196593328D02*
X182815170Y-195807614D01*
X182815170Y-195807614D02*
X182743741Y-195664757D01*
X182743741Y-195664757D02*
X182600884Y-195593328D01*
X182600884Y-195593328D02*
X182315170Y-195593328D01*
X182315170Y-195593328D02*
X182172312Y-195664757D01*
X182815170Y-196521900D02*
X182672312Y-196593328D01*
X182672312Y-196593328D02*
X182315170Y-196593328D01*
X182315170Y-196593328D02*
X182172312Y-196521900D01*
X182172312Y-196521900D02*
X182100884Y-196379042D01*
X182100884Y-196379042D02*
X182100884Y-196236185D01*
X182100884Y-196236185D02*
X182172312Y-196093328D01*
X182172312Y-196093328D02*
X182315170Y-196021900D01*
X182315170Y-196021900D02*
X182672312Y-196021900D01*
X182672312Y-196021900D02*
X182815170Y-195950471D01*
X184172313Y-196593328D02*
X184172313Y-195093328D01*
X184172313Y-196521900D02*
X184029455Y-196593328D01*
X184029455Y-196593328D02*
X183743741Y-196593328D01*
X183743741Y-196593328D02*
X183600884Y-196521900D01*
X183600884Y-196521900D02*
X183529455Y-196450471D01*
X183529455Y-196450471D02*
X183458027Y-196307614D01*
X183458027Y-196307614D02*
X183458027Y-195879042D01*
X183458027Y-195879042D02*
X183529455Y-195736185D01*
X183529455Y-195736185D02*
X183600884Y-195664757D01*
X183600884Y-195664757D02*
X183743741Y-195593328D01*
X183743741Y-195593328D02*
X184029455Y-195593328D01*
X184029455Y-195593328D02*
X184172313Y-195664757D01*
X186029455Y-195807614D02*
X186529455Y-195807614D01*
X186743741Y-196593328D02*
X186029455Y-196593328D01*
X186029455Y-196593328D02*
X186029455Y-195093328D01*
X186029455Y-195093328D02*
X186743741Y-195093328D01*
X187386598Y-196450471D02*
X187458027Y-196521900D01*
X187458027Y-196521900D02*
X187386598Y-196593328D01*
X187386598Y-196593328D02*
X187315170Y-196521900D01*
X187315170Y-196521900D02*
X187386598Y-196450471D01*
X187386598Y-196450471D02*
X187386598Y-196593328D01*
X188100884Y-196593328D02*
X188100884Y-195093328D01*
X188100884Y-195093328D02*
X188458027Y-195093328D01*
X188458027Y-195093328D02*
X188672313Y-195164757D01*
X188672313Y-195164757D02*
X188815170Y-195307614D01*
X188815170Y-195307614D02*
X188886599Y-195450471D01*
X188886599Y-195450471D02*
X188958027Y-195736185D01*
X188958027Y-195736185D02*
X188958027Y-195950471D01*
X188958027Y-195950471D02*
X188886599Y-196236185D01*
X188886599Y-196236185D02*
X188815170Y-196379042D01*
X188815170Y-196379042D02*
X188672313Y-196521900D01*
X188672313Y-196521900D02*
X188458027Y-196593328D01*
X188458027Y-196593328D02*
X188100884Y-196593328D01*
X189600884Y-196450471D02*
X189672313Y-196521900D01*
X189672313Y-196521900D02*
X189600884Y-196593328D01*
X189600884Y-196593328D02*
X189529456Y-196521900D01*
X189529456Y-196521900D02*
X189600884Y-196450471D01*
X189600884Y-196450471D02*
X189600884Y-196593328D01*
X190243742Y-196164757D02*
X190958028Y-196164757D01*
X190100885Y-196593328D02*
X190600885Y-195093328D01*
X190600885Y-195093328D02*
X191100885Y-196593328D01*
X191600884Y-196450471D02*
X191672313Y-196521900D01*
X191672313Y-196521900D02*
X191600884Y-196593328D01*
X191600884Y-196593328D02*
X191529456Y-196521900D01*
X191529456Y-196521900D02*
X191600884Y-196450471D01*
X191600884Y-196450471D02*
X191600884Y-196593328D01*
X194600884Y-196593328D02*
X194600884Y-195093328D01*
X194743742Y-196021900D02*
X195172313Y-196593328D01*
X195172313Y-195593328D02*
X194600884Y-196164757D01*
X195815170Y-196593328D02*
X195815170Y-195593328D01*
X195815170Y-195093328D02*
X195743742Y-195164757D01*
X195743742Y-195164757D02*
X195815170Y-195236185D01*
X195815170Y-195236185D02*
X195886599Y-195164757D01*
X195886599Y-195164757D02*
X195815170Y-195093328D01*
X195815170Y-195093328D02*
X195815170Y-195236185D01*
X197172314Y-196521900D02*
X197029456Y-196593328D01*
X197029456Y-196593328D02*
X196743742Y-196593328D01*
X196743742Y-196593328D02*
X196600885Y-196521900D01*
X196600885Y-196521900D02*
X196529456Y-196450471D01*
X196529456Y-196450471D02*
X196458028Y-196307614D01*
X196458028Y-196307614D02*
X196458028Y-195879042D01*
X196458028Y-195879042D02*
X196529456Y-195736185D01*
X196529456Y-195736185D02*
X196600885Y-195664757D01*
X196600885Y-195664757D02*
X196743742Y-195593328D01*
X196743742Y-195593328D02*
X197029456Y-195593328D01*
X197029456Y-195593328D02*
X197172314Y-195664757D01*
X198458028Y-196593328D02*
X198458028Y-195807614D01*
X198458028Y-195807614D02*
X198386599Y-195664757D01*
X198386599Y-195664757D02*
X198243742Y-195593328D01*
X198243742Y-195593328D02*
X197958028Y-195593328D01*
X197958028Y-195593328D02*
X197815170Y-195664757D01*
X198458028Y-196521900D02*
X198315170Y-196593328D01*
X198315170Y-196593328D02*
X197958028Y-196593328D01*
X197958028Y-196593328D02*
X197815170Y-196521900D01*
X197815170Y-196521900D02*
X197743742Y-196379042D01*
X197743742Y-196379042D02*
X197743742Y-196236185D01*
X197743742Y-196236185D02*
X197815170Y-196093328D01*
X197815170Y-196093328D02*
X197958028Y-196021900D01*
X197958028Y-196021900D02*
X198315170Y-196021900D01*
X198315170Y-196021900D02*
X198458028Y-195950471D01*
X199815171Y-196593328D02*
X199815171Y-195093328D01*
X199815171Y-196521900D02*
X199672313Y-196593328D01*
X199672313Y-196593328D02*
X199386599Y-196593328D01*
X199386599Y-196593328D02*
X199243742Y-196521900D01*
X199243742Y-196521900D02*
X199172313Y-196450471D01*
X199172313Y-196450471D02*
X199100885Y-196307614D01*
X199100885Y-196307614D02*
X199100885Y-195879042D01*
X199100885Y-195879042D02*
X199172313Y-195736185D01*
X199172313Y-195736185D02*
X199243742Y-195664757D01*
X199243742Y-195664757D02*
X199386599Y-195593328D01*
X199386599Y-195593328D02*
X199672313Y-195593328D01*
X199672313Y-195593328D02*
X199815171Y-195664757D01*
X201529456Y-195093328D02*
X202529456Y-195093328D01*
X202529456Y-195093328D02*
X201886599Y-196593328D01*
X203100884Y-196450471D02*
X203172313Y-196521900D01*
X203172313Y-196521900D02*
X203100884Y-196593328D01*
X203100884Y-196593328D02*
X203029456Y-196521900D01*
X203029456Y-196521900D02*
X203100884Y-196450471D01*
X203100884Y-196450471D02*
X203100884Y-196593328D01*
X204100885Y-195093328D02*
X204243742Y-195093328D01*
X204243742Y-195093328D02*
X204386599Y-195164757D01*
X204386599Y-195164757D02*
X204458028Y-195236185D01*
X204458028Y-195236185D02*
X204529456Y-195379042D01*
X204529456Y-195379042D02*
X204600885Y-195664757D01*
X204600885Y-195664757D02*
X204600885Y-196021900D01*
X204600885Y-196021900D02*
X204529456Y-196307614D01*
X204529456Y-196307614D02*
X204458028Y-196450471D01*
X204458028Y-196450471D02*
X204386599Y-196521900D01*
X204386599Y-196521900D02*
X204243742Y-196593328D01*
X204243742Y-196593328D02*
X204100885Y-196593328D01*
X204100885Y-196593328D02*
X203958028Y-196521900D01*
X203958028Y-196521900D02*
X203886599Y-196450471D01*
X203886599Y-196450471D02*
X203815170Y-196307614D01*
X203815170Y-196307614D02*
X203743742Y-196021900D01*
X203743742Y-196021900D02*
X203743742Y-195664757D01*
X203743742Y-195664757D02*
X203815170Y-195379042D01*
X203815170Y-195379042D02*
X203886599Y-195236185D01*
X203886599Y-195236185D02*
X203958028Y-195164757D01*
X203958028Y-195164757D02*
X204100885Y-195093328D01*
X205243741Y-196450471D02*
X205315170Y-196521900D01*
X205315170Y-196521900D02*
X205243741Y-196593328D01*
X205243741Y-196593328D02*
X205172313Y-196521900D01*
X205172313Y-196521900D02*
X205243741Y-196450471D01*
X205243741Y-196450471D02*
X205243741Y-196593328D01*
X205815170Y-195093328D02*
X206815170Y-195093328D01*
X206815170Y-195093328D02*
X206172313Y-196593328D01*
D10*
D11*
X177002200Y-191507200D02*
X285002200Y-191507200D01*
D10*
D12*
X264413853Y-193785528D02*
X263913853Y-193071242D01*
X263556710Y-193785528D02*
X263556710Y-192285528D01*
X263556710Y-192285528D02*
X264128139Y-192285528D01*
X264128139Y-192285528D02*
X264270996Y-192356957D01*
X264270996Y-192356957D02*
X264342425Y-192428385D01*
X264342425Y-192428385D02*
X264413853Y-192571242D01*
X264413853Y-192571242D02*
X264413853Y-192785528D01*
X264413853Y-192785528D02*
X264342425Y-192928385D01*
X264342425Y-192928385D02*
X264270996Y-192999814D01*
X264270996Y-192999814D02*
X264128139Y-193071242D01*
X264128139Y-193071242D02*
X263556710Y-193071242D01*
X265628139Y-193714100D02*
X265485282Y-193785528D01*
X265485282Y-193785528D02*
X265199568Y-193785528D01*
X265199568Y-193785528D02*
X265056710Y-193714100D01*
X265056710Y-193714100D02*
X264985282Y-193571242D01*
X264985282Y-193571242D02*
X264985282Y-192999814D01*
X264985282Y-192999814D02*
X265056710Y-192856957D01*
X265056710Y-192856957D02*
X265199568Y-192785528D01*
X265199568Y-192785528D02*
X265485282Y-192785528D01*
X265485282Y-192785528D02*
X265628139Y-192856957D01*
X265628139Y-192856957D02*
X265699568Y-192999814D01*
X265699568Y-192999814D02*
X265699568Y-193142671D01*
X265699568Y-193142671D02*
X264985282Y-193285528D01*
X266199567Y-192785528D02*
X266556710Y-193785528D01*
X266556710Y-193785528D02*
X266913853Y-192785528D01*
X267485281Y-193642671D02*
X267556710Y-193714100D01*
X267556710Y-193714100D02*
X267485281Y-193785528D01*
X267485281Y-193785528D02*
X267413853Y-193714100D01*
X267413853Y-193714100D02*
X267485281Y-193642671D01*
X267485281Y-193642671D02*
X267485281Y-193785528D01*
X267485281Y-192856957D02*
X267556710Y-192928385D01*
X267556710Y-192928385D02*
X267485281Y-192999814D01*
X267485281Y-192999814D02*
X267413853Y-192928385D01*
X267413853Y-192928385D02*
X267485281Y-192856957D01*
X267485281Y-192856957D02*
X267485281Y-192999814D01*
X270128139Y-193785528D02*
X269270996Y-193785528D01*
X269699567Y-193785528D02*
X269699567Y-192285528D01*
X269699567Y-192285528D02*
X269556710Y-192499814D01*
X269556710Y-192499814D02*
X269413853Y-192642671D01*
X269413853Y-192642671D02*
X269270996Y-192714100D01*
X270770995Y-193642671D02*
X270842424Y-193714100D01*
X270842424Y-193714100D02*
X270770995Y-193785528D01*
X270770995Y-193785528D02*
X270699567Y-193714100D01*
X270699567Y-193714100D02*
X270770995Y-193642671D01*
X270770995Y-193642671D02*
X270770995Y-193785528D01*
X271770996Y-192285528D02*
X271913853Y-192285528D01*
X271913853Y-192285528D02*
X272056710Y-192356957D01*
X272056710Y-192356957D02*
X272128139Y-192428385D01*
X272128139Y-192428385D02*
X272199567Y-192571242D01*
X272199567Y-192571242D02*
X272270996Y-192856957D01*
X272270996Y-192856957D02*
X272270996Y-193214100D01*
X272270996Y-193214100D02*
X272199567Y-193499814D01*
X272199567Y-193499814D02*
X272128139Y-193642671D01*
X272128139Y-193642671D02*
X272056710Y-193714100D01*
X272056710Y-193714100D02*
X271913853Y-193785528D01*
X271913853Y-193785528D02*
X271770996Y-193785528D01*
X271770996Y-193785528D02*
X271628139Y-193714100D01*
X271628139Y-193714100D02*
X271556710Y-193642671D01*
X271556710Y-193642671D02*
X271485281Y-193499814D01*
X271485281Y-193499814D02*
X271413853Y-193214100D01*
X271413853Y-193214100D02*
X271413853Y-192856957D01*
X271413853Y-192856957D02*
X271485281Y-192571242D01*
X271485281Y-192571242D02*
X271556710Y-192428385D01*
X271556710Y-192428385D02*
X271628139Y-192356957D01*
X271628139Y-192356957D02*
X271770996Y-192285528D01*
D10*
D11*
X178386598Y-193721900D02*
X178600884Y-193793328D01*
X178600884Y-193793328D02*
X178958026Y-193793328D01*
X178958026Y-193793328D02*
X179100884Y-193721900D01*
X179100884Y-193721900D02*
X179172312Y-193650471D01*
X179172312Y-193650471D02*
X179243741Y-193507614D01*
X179243741Y-193507614D02*
X179243741Y-193364757D01*
X179243741Y-193364757D02*
X179172312Y-193221900D01*
X179172312Y-193221900D02*
X179100884Y-193150471D01*
X179100884Y-193150471D02*
X178958026Y-193079042D01*
X178958026Y-193079042D02*
X178672312Y-193007614D01*
X178672312Y-193007614D02*
X178529455Y-192936185D01*
X178529455Y-192936185D02*
X178458026Y-192864757D01*
X178458026Y-192864757D02*
X178386598Y-192721900D01*
X178386598Y-192721900D02*
X178386598Y-192579042D01*
X178386598Y-192579042D02*
X178458026Y-192436185D01*
X178458026Y-192436185D02*
X178529455Y-192364757D01*
X178529455Y-192364757D02*
X178672312Y-192293328D01*
X178672312Y-192293328D02*
X179029455Y-192293328D01*
X179029455Y-192293328D02*
X179243741Y-192364757D01*
X179886597Y-193793328D02*
X179886597Y-192793328D01*
X179886597Y-192293328D02*
X179815169Y-192364757D01*
X179815169Y-192364757D02*
X179886597Y-192436185D01*
X179886597Y-192436185D02*
X179958026Y-192364757D01*
X179958026Y-192364757D02*
X179886597Y-192293328D01*
X179886597Y-192293328D02*
X179886597Y-192436185D01*
X180458026Y-192793328D02*
X181243741Y-192793328D01*
X181243741Y-192793328D02*
X180458026Y-193793328D01*
X180458026Y-193793328D02*
X181243741Y-193793328D01*
X182386598Y-193721900D02*
X182243741Y-193793328D01*
X182243741Y-193793328D02*
X181958027Y-193793328D01*
X181958027Y-193793328D02*
X181815169Y-193721900D01*
X181815169Y-193721900D02*
X181743741Y-193579042D01*
X181743741Y-193579042D02*
X181743741Y-193007614D01*
X181743741Y-193007614D02*
X181815169Y-192864757D01*
X181815169Y-192864757D02*
X181958027Y-192793328D01*
X181958027Y-192793328D02*
X182243741Y-192793328D01*
X182243741Y-192793328D02*
X182386598Y-192864757D01*
X182386598Y-192864757D02*
X182458027Y-193007614D01*
X182458027Y-193007614D02*
X182458027Y-193150471D01*
X182458027Y-193150471D02*
X181743741Y-193293328D01*
X183100883Y-193650471D02*
X183172312Y-193721900D01*
X183172312Y-193721900D02*
X183100883Y-193793328D01*
X183100883Y-193793328D02*
X183029455Y-193721900D01*
X183029455Y-193721900D02*
X183100883Y-193650471D01*
X183100883Y-193650471D02*
X183100883Y-193793328D01*
X183100883Y-192864757D02*
X183172312Y-192936185D01*
X183172312Y-192936185D02*
X183100883Y-193007614D01*
X183100883Y-193007614D02*
X183029455Y-192936185D01*
X183029455Y-192936185D02*
X183100883Y-192864757D01*
X183100883Y-192864757D02*
X183100883Y-193007614D01*
X184886598Y-193364757D02*
X185600884Y-193364757D01*
X184743741Y-193793328D02*
X185243741Y-192293328D01*
X185243741Y-192293328D02*
X185743741Y-193793328D01*
X186886598Y-192793328D02*
X186886598Y-193793328D01*
X186529455Y-192221900D02*
X186172312Y-193293328D01*
X186172312Y-193293328D02*
X187100883Y-193293328D01*
D10*
D11*
X263458026Y-196593328D02*
X263458026Y-195093328D01*
X264815170Y-196593328D02*
X264815170Y-195093328D01*
X264815170Y-196521900D02*
X264672312Y-196593328D01*
X264672312Y-196593328D02*
X264386598Y-196593328D01*
X264386598Y-196593328D02*
X264243741Y-196521900D01*
X264243741Y-196521900D02*
X264172312Y-196450471D01*
X264172312Y-196450471D02*
X264100884Y-196307614D01*
X264100884Y-196307614D02*
X264100884Y-195879042D01*
X264100884Y-195879042D02*
X264172312Y-195736185D01*
X264172312Y-195736185D02*
X264243741Y-195664757D01*
X264243741Y-195664757D02*
X264386598Y-195593328D01*
X264386598Y-195593328D02*
X264672312Y-195593328D01*
X264672312Y-195593328D02*
X264815170Y-195664757D01*
X265529455Y-196450471D02*
X265600884Y-196521900D01*
X265600884Y-196521900D02*
X265529455Y-196593328D01*
X265529455Y-196593328D02*
X265458027Y-196521900D01*
X265458027Y-196521900D02*
X265529455Y-196450471D01*
X265529455Y-196450471D02*
X265529455Y-196593328D01*
X265529455Y-195664757D02*
X265600884Y-195736185D01*
X265600884Y-195736185D02*
X265529455Y-195807614D01*
X265529455Y-195807614D02*
X265458027Y-195736185D01*
X265458027Y-195736185D02*
X265529455Y-195664757D01*
X265529455Y-195664757D02*
X265529455Y-195807614D01*
X268172313Y-196593328D02*
X267315170Y-196593328D01*
X267743741Y-196593328D02*
X267743741Y-195093328D01*
X267743741Y-195093328D02*
X267600884Y-195307614D01*
X267600884Y-195307614D02*
X267458027Y-195450471D01*
X267458027Y-195450471D02*
X267315170Y-195521900D01*
X269886598Y-195021900D02*
X268600884Y-196950471D01*
X271172313Y-196593328D02*
X270315170Y-196593328D01*
X270743741Y-196593328D02*
X270743741Y-195093328D01*
X270743741Y-195093328D02*
X270600884Y-195307614D01*
X270600884Y-195307614D02*
X270458027Y-195450471D01*
X270458027Y-195450471D02*
X270315170Y-195521900D01*
D10*
D11*
X177002200Y-187507200D02*
X285002200Y-187507200D01*
D10*
D13*
X178693928Y-188211638D02*
X179836785Y-188211638D01*
X179015357Y-190211638D02*
X179265357Y-188211638D01*
X180253452Y-190211638D02*
X180420119Y-188878304D01*
X180503452Y-188211638D02*
X180396309Y-188306876D01*
X180396309Y-188306876D02*
X180479643Y-188402114D01*
X180479643Y-188402114D02*
X180586786Y-188306876D01*
X180586786Y-188306876D02*
X180503452Y-188211638D01*
X180503452Y-188211638D02*
X180479643Y-188402114D01*
X181086786Y-188878304D02*
X181848690Y-188878304D01*
X181455833Y-188211638D02*
X181241548Y-189925923D01*
X181241548Y-189925923D02*
X181312976Y-190116400D01*
X181312976Y-190116400D02*
X181491548Y-190211638D01*
X181491548Y-190211638D02*
X181682024Y-190211638D01*
X182634405Y-190211638D02*
X182455833Y-190116400D01*
X182455833Y-190116400D02*
X182384405Y-189925923D01*
X182384405Y-189925923D02*
X182598690Y-188211638D01*
X184170119Y-190116400D02*
X183967738Y-190211638D01*
X183967738Y-190211638D02*
X183586785Y-190211638D01*
X183586785Y-190211638D02*
X183408214Y-190116400D01*
X183408214Y-190116400D02*
X183336785Y-189925923D01*
X183336785Y-189925923D02*
X183432024Y-189164019D01*
X183432024Y-189164019D02*
X183551071Y-188973542D01*
X183551071Y-188973542D02*
X183753452Y-188878304D01*
X183753452Y-188878304D02*
X184134404Y-188878304D01*
X184134404Y-188878304D02*
X184312976Y-188973542D01*
X184312976Y-188973542D02*
X184384404Y-189164019D01*
X184384404Y-189164019D02*
X184360595Y-189354495D01*
X184360595Y-189354495D02*
X183384404Y-189544971D01*
X185134405Y-190021161D02*
X185217738Y-190116400D01*
X185217738Y-190116400D02*
X185110595Y-190211638D01*
X185110595Y-190211638D02*
X185027262Y-190116400D01*
X185027262Y-190116400D02*
X185134405Y-190021161D01*
X185134405Y-190021161D02*
X185110595Y-190211638D01*
X185265357Y-188973542D02*
X185348690Y-189068780D01*
X185348690Y-189068780D02*
X185241548Y-189164019D01*
X185241548Y-189164019D02*
X185158214Y-189068780D01*
X185158214Y-189068780D02*
X185265357Y-188973542D01*
X185265357Y-188973542D02*
X185241548Y-189164019D01*
X188729643Y-190211638D02*
X188182024Y-189259257D01*
X187586786Y-190211638D02*
X187836786Y-188211638D01*
X187836786Y-188211638D02*
X188598691Y-188211638D01*
X188598691Y-188211638D02*
X188777262Y-188306876D01*
X188777262Y-188306876D02*
X188860596Y-188402114D01*
X188860596Y-188402114D02*
X188932024Y-188592590D01*
X188932024Y-188592590D02*
X188896310Y-188878304D01*
X188896310Y-188878304D02*
X188777262Y-189068780D01*
X188777262Y-189068780D02*
X188670120Y-189164019D01*
X188670120Y-189164019D02*
X188467739Y-189259257D01*
X188467739Y-189259257D02*
X187705834Y-189259257D01*
X190443929Y-190211638D02*
X190574881Y-189164019D01*
X190574881Y-189164019D02*
X190503453Y-188973542D01*
X190503453Y-188973542D02*
X190324881Y-188878304D01*
X190324881Y-188878304D02*
X189943929Y-188878304D01*
X189943929Y-188878304D02*
X189741548Y-188973542D01*
X190455834Y-190116400D02*
X190253453Y-190211638D01*
X190253453Y-190211638D02*
X189777262Y-190211638D01*
X189777262Y-190211638D02*
X189598691Y-190116400D01*
X189598691Y-190116400D02*
X189527262Y-189925923D01*
X189527262Y-189925923D02*
X189551072Y-189735447D01*
X189551072Y-189735447D02*
X189670120Y-189544971D01*
X189670120Y-189544971D02*
X189872501Y-189449733D01*
X189872501Y-189449733D02*
X190348691Y-189449733D01*
X190348691Y-189449733D02*
X190551072Y-189354495D01*
X191312977Y-190116400D02*
X191491548Y-190211638D01*
X191491548Y-190211638D02*
X191872501Y-190211638D01*
X191872501Y-190211638D02*
X192074882Y-190116400D01*
X192074882Y-190116400D02*
X192193929Y-189925923D01*
X192193929Y-189925923D02*
X192205834Y-189830685D01*
X192205834Y-189830685D02*
X192134405Y-189640209D01*
X192134405Y-189640209D02*
X191955834Y-189544971D01*
X191955834Y-189544971D02*
X191670120Y-189544971D01*
X191670120Y-189544971D02*
X191491548Y-189449733D01*
X191491548Y-189449733D02*
X191420120Y-189259257D01*
X191420120Y-189259257D02*
X191432025Y-189164019D01*
X191432025Y-189164019D02*
X191551072Y-188973542D01*
X191551072Y-188973542D02*
X191753453Y-188878304D01*
X191753453Y-188878304D02*
X192039167Y-188878304D01*
X192039167Y-188878304D02*
X192217739Y-188973542D01*
X193182025Y-188878304D02*
X192932025Y-190878304D01*
X193170120Y-188973542D02*
X193372501Y-188878304D01*
X193372501Y-188878304D02*
X193753453Y-188878304D01*
X193753453Y-188878304D02*
X193932025Y-188973542D01*
X193932025Y-188973542D02*
X194015358Y-189068780D01*
X194015358Y-189068780D02*
X194086787Y-189259257D01*
X194086787Y-189259257D02*
X194015358Y-189830685D01*
X194015358Y-189830685D02*
X193896311Y-190021161D01*
X193896311Y-190021161D02*
X193789168Y-190116400D01*
X193789168Y-190116400D02*
X193586787Y-190211638D01*
X193586787Y-190211638D02*
X193205834Y-190211638D01*
X193205834Y-190211638D02*
X193027263Y-190116400D01*
X194824882Y-190211638D02*
X195074882Y-188211638D01*
X194979644Y-188973542D02*
X195182025Y-188878304D01*
X195182025Y-188878304D02*
X195562977Y-188878304D01*
X195562977Y-188878304D02*
X195741549Y-188973542D01*
X195741549Y-188973542D02*
X195824882Y-189068780D01*
X195824882Y-189068780D02*
X195896311Y-189259257D01*
X195896311Y-189259257D02*
X195824882Y-189830685D01*
X195824882Y-189830685D02*
X195705835Y-190021161D01*
X195705835Y-190021161D02*
X195598692Y-190116400D01*
X195598692Y-190116400D02*
X195396311Y-190211638D01*
X195396311Y-190211638D02*
X195015358Y-190211638D01*
X195015358Y-190211638D02*
X194836787Y-190116400D01*
X197408216Y-190116400D02*
X197205835Y-190211638D01*
X197205835Y-190211638D02*
X196824882Y-190211638D01*
X196824882Y-190211638D02*
X196646311Y-190116400D01*
X196646311Y-190116400D02*
X196574882Y-189925923D01*
X196574882Y-189925923D02*
X196670121Y-189164019D01*
X196670121Y-189164019D02*
X196789168Y-188973542D01*
X196789168Y-188973542D02*
X196991549Y-188878304D01*
X196991549Y-188878304D02*
X197372501Y-188878304D01*
X197372501Y-188878304D02*
X197551073Y-188973542D01*
X197551073Y-188973542D02*
X197622501Y-189164019D01*
X197622501Y-189164019D02*
X197598692Y-189354495D01*
X197598692Y-189354495D02*
X196622501Y-189544971D01*
X198348692Y-190211638D02*
X198515359Y-188878304D01*
X198467740Y-189259257D02*
X198586787Y-189068780D01*
X198586787Y-189068780D02*
X198693930Y-188973542D01*
X198693930Y-188973542D02*
X198896311Y-188878304D01*
X198896311Y-188878304D02*
X199086787Y-188878304D01*
X199586787Y-190211638D02*
X199753454Y-188878304D01*
X199705835Y-189259257D02*
X199824882Y-189068780D01*
X199824882Y-189068780D02*
X199932025Y-188973542D01*
X199932025Y-188973542D02*
X200134406Y-188878304D01*
X200134406Y-188878304D02*
X200324882Y-188878304D01*
X200801073Y-188878304D02*
X201110597Y-190211638D01*
X201753454Y-188878304D02*
X201110597Y-190211638D01*
X201110597Y-190211638D02*
X200860597Y-190687828D01*
X200860597Y-190687828D02*
X200753454Y-190783066D01*
X200753454Y-190783066D02*
X200551073Y-190878304D01*
X203872502Y-190211638D02*
X204122502Y-188211638D01*
X204122502Y-188211638D02*
X204884407Y-188211638D01*
X204884407Y-188211638D02*
X205062978Y-188306876D01*
X205062978Y-188306876D02*
X205146312Y-188402114D01*
X205146312Y-188402114D02*
X205217740Y-188592590D01*
X205217740Y-188592590D02*
X205182026Y-188878304D01*
X205182026Y-188878304D02*
X205062978Y-189068780D01*
X205062978Y-189068780D02*
X204955836Y-189164019D01*
X204955836Y-189164019D02*
X204753455Y-189259257D01*
X204753455Y-189259257D02*
X203991550Y-189259257D01*
X205872502Y-190211638D02*
X206039169Y-188878304D01*
X206122502Y-188211638D02*
X206015359Y-188306876D01*
X206015359Y-188306876D02*
X206098693Y-188402114D01*
X206098693Y-188402114D02*
X206205836Y-188306876D01*
X206205836Y-188306876D02*
X206122502Y-188211638D01*
X206122502Y-188211638D02*
X206098693Y-188402114D01*
X208408217Y-188211638D02*
X209741550Y-188211638D01*
X209741550Y-188211638D02*
X208158217Y-190211638D01*
X208158217Y-190211638D02*
X209491550Y-190211638D01*
X211027265Y-190116400D02*
X210824884Y-190211638D01*
X210824884Y-190211638D02*
X210443931Y-190211638D01*
X210443931Y-190211638D02*
X210265360Y-190116400D01*
X210265360Y-190116400D02*
X210193931Y-189925923D01*
X210193931Y-189925923D02*
X210289170Y-189164019D01*
X210289170Y-189164019D02*
X210408217Y-188973542D01*
X210408217Y-188973542D02*
X210610598Y-188878304D01*
X210610598Y-188878304D02*
X210991550Y-188878304D01*
X210991550Y-188878304D02*
X211170122Y-188973542D01*
X211170122Y-188973542D02*
X211241550Y-189164019D01*
X211241550Y-189164019D02*
X211217741Y-189354495D01*
X211217741Y-189354495D02*
X210241550Y-189544971D01*
X211967741Y-190211638D02*
X212134408Y-188878304D01*
X212086789Y-189259257D02*
X212205836Y-189068780D01*
X212205836Y-189068780D02*
X212312979Y-188973542D01*
X212312979Y-188973542D02*
X212515360Y-188878304D01*
X212515360Y-188878304D02*
X212705836Y-188878304D01*
X213491551Y-190211638D02*
X213312979Y-190116400D01*
X213312979Y-190116400D02*
X213229646Y-190021161D01*
X213229646Y-190021161D02*
X213158217Y-189830685D01*
X213158217Y-189830685D02*
X213229646Y-189259257D01*
X213229646Y-189259257D02*
X213348693Y-189068780D01*
X213348693Y-189068780D02*
X213455836Y-188973542D01*
X213455836Y-188973542D02*
X213658217Y-188878304D01*
X213658217Y-188878304D02*
X213943931Y-188878304D01*
X213943931Y-188878304D02*
X214122503Y-188973542D01*
X214122503Y-188973542D02*
X214205836Y-189068780D01*
X214205836Y-189068780D02*
X214277265Y-189259257D01*
X214277265Y-189259257D02*
X214205836Y-189830685D01*
X214205836Y-189830685D02*
X214086789Y-190021161D01*
X214086789Y-190021161D02*
X213979646Y-190116400D01*
X213979646Y-190116400D02*
X213777265Y-190211638D01*
X213777265Y-190211638D02*
X213491551Y-190211638D01*
X217015361Y-190973542D02*
X216932027Y-190878304D01*
X216932027Y-190878304D02*
X216777265Y-190592590D01*
X216777265Y-190592590D02*
X216705837Y-190402114D01*
X216705837Y-190402114D02*
X216646313Y-190116400D01*
X216646313Y-190116400D02*
X216610599Y-189640209D01*
X216610599Y-189640209D02*
X216658218Y-189259257D01*
X216658218Y-189259257D02*
X216812980Y-188783066D01*
X216812980Y-188783066D02*
X216943932Y-188497352D01*
X216943932Y-188497352D02*
X217062980Y-188306876D01*
X217062980Y-188306876D02*
X217289170Y-188021161D01*
X217289170Y-188021161D02*
X217396313Y-187925923D01*
X217932027Y-188211638D02*
X218158218Y-190211638D01*
X218158218Y-190211638D02*
X218717741Y-188783066D01*
X218717741Y-188783066D02*
X218920122Y-190211638D01*
X218920122Y-190211638D02*
X219646313Y-188211638D01*
X219872503Y-190973542D02*
X219979646Y-190878304D01*
X219979646Y-190878304D02*
X220205836Y-190592590D01*
X220205836Y-190592590D02*
X220324884Y-190402114D01*
X220324884Y-190402114D02*
X220455836Y-190116400D01*
X220455836Y-190116400D02*
X220610598Y-189640209D01*
X220610598Y-189640209D02*
X220658217Y-189259257D01*
X220658217Y-189259257D02*
X220622503Y-188783066D01*
X220622503Y-188783066D02*
X220562979Y-188497352D01*
X220562979Y-188497352D02*
X220491551Y-188306876D01*
X220491551Y-188306876D02*
X220336789Y-188021161D01*
X220336789Y-188021161D02*
X220253455Y-187925923D01*
X224039170Y-188878304D02*
X223872503Y-190211638D01*
X223182027Y-188878304D02*
X223051075Y-189925923D01*
X223051075Y-189925923D02*
X223122503Y-190116400D01*
X223122503Y-190116400D02*
X223301075Y-190211638D01*
X223301075Y-190211638D02*
X223586789Y-190211638D01*
X223586789Y-190211638D02*
X223789170Y-190116400D01*
X223789170Y-190116400D02*
X223896313Y-190021161D01*
X224824884Y-190211638D02*
X225074884Y-188211638D01*
X224955837Y-189164019D02*
X226098694Y-189164019D01*
X225967741Y-190211638D02*
X226217741Y-188211638D01*
X226896313Y-189640209D02*
X227848694Y-189640209D01*
X226634408Y-190211638D02*
X227551075Y-188211638D01*
X227551075Y-188211638D02*
X227967741Y-190211638D01*
X228598694Y-188211638D02*
X229741551Y-188211638D01*
X228920123Y-190211638D02*
X229170123Y-188211638D01*
X231646314Y-188211638D02*
X232789171Y-188211638D01*
X231967743Y-190211638D02*
X232217743Y-188211638D01*
X233979648Y-190116400D02*
X233777267Y-190211638D01*
X233777267Y-190211638D02*
X233396314Y-190211638D01*
X233396314Y-190211638D02*
X233217743Y-190116400D01*
X233217743Y-190116400D02*
X233146314Y-189925923D01*
X233146314Y-189925923D02*
X233241553Y-189164019D01*
X233241553Y-189164019D02*
X233360600Y-188973542D01*
X233360600Y-188973542D02*
X233562981Y-188878304D01*
X233562981Y-188878304D02*
X233943933Y-188878304D01*
X233943933Y-188878304D02*
X234122505Y-188973542D01*
X234122505Y-188973542D02*
X234193933Y-189164019D01*
X234193933Y-189164019D02*
X234170124Y-189354495D01*
X234170124Y-189354495D02*
X233193933Y-189544971D01*
X234920124Y-190211638D02*
X235086791Y-188878304D01*
X235062981Y-189068780D02*
X235170124Y-188973542D01*
X235170124Y-188973542D02*
X235372505Y-188878304D01*
X235372505Y-188878304D02*
X235658219Y-188878304D01*
X235658219Y-188878304D02*
X235836791Y-188973542D01*
X235836791Y-188973542D02*
X235908219Y-189164019D01*
X235908219Y-189164019D02*
X235777267Y-190211638D01*
X235908219Y-189164019D02*
X236027267Y-188973542D01*
X236027267Y-188973542D02*
X236229648Y-188878304D01*
X236229648Y-188878304D02*
X236515362Y-188878304D01*
X236515362Y-188878304D02*
X236693934Y-188973542D01*
X236693934Y-188973542D02*
X236765362Y-189164019D01*
X236765362Y-189164019D02*
X236634410Y-190211638D01*
X237753458Y-188878304D02*
X237503458Y-190878304D01*
X237741553Y-188973542D02*
X237943934Y-188878304D01*
X237943934Y-188878304D02*
X238324886Y-188878304D01*
X238324886Y-188878304D02*
X238503458Y-188973542D01*
X238503458Y-188973542D02*
X238586791Y-189068780D01*
X238586791Y-189068780D02*
X238658220Y-189259257D01*
X238658220Y-189259257D02*
X238586791Y-189830685D01*
X238586791Y-189830685D02*
X238467744Y-190021161D01*
X238467744Y-190021161D02*
X238360601Y-190116400D01*
X238360601Y-190116400D02*
X238158220Y-190211638D01*
X238158220Y-190211638D02*
X237777267Y-190211638D01*
X237777267Y-190211638D02*
X237598696Y-190116400D01*
X239682030Y-190211638D02*
X239503458Y-190116400D01*
X239503458Y-190116400D02*
X239432030Y-189925923D01*
X239432030Y-189925923D02*
X239646315Y-188211638D01*
X241301077Y-190211638D02*
X241432029Y-189164019D01*
X241432029Y-189164019D02*
X241360601Y-188973542D01*
X241360601Y-188973542D02*
X241182029Y-188878304D01*
X241182029Y-188878304D02*
X240801077Y-188878304D01*
X240801077Y-188878304D02*
X240598696Y-188973542D01*
X241312982Y-190116400D02*
X241110601Y-190211638D01*
X241110601Y-190211638D02*
X240634410Y-190211638D01*
X240634410Y-190211638D02*
X240455839Y-190116400D01*
X240455839Y-190116400D02*
X240384410Y-189925923D01*
X240384410Y-189925923D02*
X240408220Y-189735447D01*
X240408220Y-189735447D02*
X240527268Y-189544971D01*
X240527268Y-189544971D02*
X240729649Y-189449733D01*
X240729649Y-189449733D02*
X241205839Y-189449733D01*
X241205839Y-189449733D02*
X241408220Y-189354495D01*
X242134411Y-188878304D02*
X242896315Y-188878304D01*
X242503458Y-188211638D02*
X242289173Y-189925923D01*
X242289173Y-189925923D02*
X242360601Y-190116400D01*
X242360601Y-190116400D02*
X242539173Y-190211638D01*
X242539173Y-190211638D02*
X242729649Y-190211638D01*
X244170125Y-190116400D02*
X243967744Y-190211638D01*
X243967744Y-190211638D02*
X243586791Y-190211638D01*
X243586791Y-190211638D02*
X243408220Y-190116400D01*
X243408220Y-190116400D02*
X243336791Y-189925923D01*
X243336791Y-189925923D02*
X243432030Y-189164019D01*
X243432030Y-189164019D02*
X243551077Y-188973542D01*
X243551077Y-188973542D02*
X243753458Y-188878304D01*
X243753458Y-188878304D02*
X244134410Y-188878304D01*
X244134410Y-188878304D02*
X244312982Y-188973542D01*
X244312982Y-188973542D02*
X244384410Y-189164019D01*
X244384410Y-189164019D02*
X244360601Y-189354495D01*
X244360601Y-189354495D02*
X243384410Y-189544971D01*
X247432030Y-189164019D02*
X247705840Y-189259257D01*
X247705840Y-189259257D02*
X247789173Y-189354495D01*
X247789173Y-189354495D02*
X247860602Y-189544971D01*
X247860602Y-189544971D02*
X247824887Y-189830685D01*
X247824887Y-189830685D02*
X247705840Y-190021161D01*
X247705840Y-190021161D02*
X247598697Y-190116400D01*
X247598697Y-190116400D02*
X247396316Y-190211638D01*
X247396316Y-190211638D02*
X246634411Y-190211638D01*
X246634411Y-190211638D02*
X246884411Y-188211638D01*
X246884411Y-188211638D02*
X247551078Y-188211638D01*
X247551078Y-188211638D02*
X247729649Y-188306876D01*
X247729649Y-188306876D02*
X247812983Y-188402114D01*
X247812983Y-188402114D02*
X247884411Y-188592590D01*
X247884411Y-188592590D02*
X247860602Y-188783066D01*
X247860602Y-188783066D02*
X247741554Y-188973542D01*
X247741554Y-188973542D02*
X247634411Y-189068780D01*
X247634411Y-189068780D02*
X247432030Y-189164019D01*
X247432030Y-189164019D02*
X246765364Y-189164019D01*
X248920126Y-190211638D02*
X248741554Y-190116400D01*
X248741554Y-190116400D02*
X248658221Y-190021161D01*
X248658221Y-190021161D02*
X248586792Y-189830685D01*
X248586792Y-189830685D02*
X248658221Y-189259257D01*
X248658221Y-189259257D02*
X248777268Y-189068780D01*
X248777268Y-189068780D02*
X248884411Y-188973542D01*
X248884411Y-188973542D02*
X249086792Y-188878304D01*
X249086792Y-188878304D02*
X249372506Y-188878304D01*
X249372506Y-188878304D02*
X249551078Y-188973542D01*
X249551078Y-188973542D02*
X249634411Y-189068780D01*
X249634411Y-189068780D02*
X249705840Y-189259257D01*
X249705840Y-189259257D02*
X249634411Y-189830685D01*
X249634411Y-189830685D02*
X249515364Y-190021161D01*
X249515364Y-190021161D02*
X249408221Y-190116400D01*
X249408221Y-190116400D02*
X249205840Y-190211638D01*
X249205840Y-190211638D02*
X248920126Y-190211638D01*
X251301078Y-190211638D02*
X251432030Y-189164019D01*
X251432030Y-189164019D02*
X251360602Y-188973542D01*
X251360602Y-188973542D02*
X251182030Y-188878304D01*
X251182030Y-188878304D02*
X250801078Y-188878304D01*
X250801078Y-188878304D02*
X250598697Y-188973542D01*
X251312983Y-190116400D02*
X251110602Y-190211638D01*
X251110602Y-190211638D02*
X250634411Y-190211638D01*
X250634411Y-190211638D02*
X250455840Y-190116400D01*
X250455840Y-190116400D02*
X250384411Y-189925923D01*
X250384411Y-189925923D02*
X250408221Y-189735447D01*
X250408221Y-189735447D02*
X250527269Y-189544971D01*
X250527269Y-189544971D02*
X250729650Y-189449733D01*
X250729650Y-189449733D02*
X251205840Y-189449733D01*
X251205840Y-189449733D02*
X251408221Y-189354495D01*
X252253459Y-190211638D02*
X252420126Y-188878304D01*
X252372507Y-189259257D02*
X252491554Y-189068780D01*
X252491554Y-189068780D02*
X252598697Y-188973542D01*
X252598697Y-188973542D02*
X252801078Y-188878304D01*
X252801078Y-188878304D02*
X252991554Y-188878304D01*
X254348697Y-190211638D02*
X254598697Y-188211638D01*
X254360602Y-190116400D02*
X254158221Y-190211638D01*
X254158221Y-190211638D02*
X253777269Y-190211638D01*
X253777269Y-190211638D02*
X253598697Y-190116400D01*
X253598697Y-190116400D02*
X253515364Y-190021161D01*
X253515364Y-190021161D02*
X253443935Y-189830685D01*
X253443935Y-189830685D02*
X253515364Y-189259257D01*
X253515364Y-189259257D02*
X253634411Y-189068780D01*
X253634411Y-189068780D02*
X253741554Y-188973542D01*
X253741554Y-188973542D02*
X253943935Y-188878304D01*
X253943935Y-188878304D02*
X254324888Y-188878304D01*
X254324888Y-188878304D02*
X254503459Y-188973542D01*
D10*
D11*
X178958026Y-185607614D02*
X178458026Y-185607614D01*
X178458026Y-186393328D02*
X178458026Y-184893328D01*
X178458026Y-184893328D02*
X179172312Y-184893328D01*
X179743740Y-186393328D02*
X179743740Y-185393328D01*
X179743740Y-184893328D02*
X179672312Y-184964757D01*
X179672312Y-184964757D02*
X179743740Y-185036185D01*
X179743740Y-185036185D02*
X179815169Y-184964757D01*
X179815169Y-184964757D02*
X179743740Y-184893328D01*
X179743740Y-184893328D02*
X179743740Y-185036185D01*
X180672312Y-186393328D02*
X180529455Y-186321900D01*
X180529455Y-186321900D02*
X180458026Y-186179042D01*
X180458026Y-186179042D02*
X180458026Y-184893328D01*
X181815169Y-186321900D02*
X181672312Y-186393328D01*
X181672312Y-186393328D02*
X181386598Y-186393328D01*
X181386598Y-186393328D02*
X181243740Y-186321900D01*
X181243740Y-186321900D02*
X181172312Y-186179042D01*
X181172312Y-186179042D02*
X181172312Y-185607614D01*
X181172312Y-185607614D02*
X181243740Y-185464757D01*
X181243740Y-185464757D02*
X181386598Y-185393328D01*
X181386598Y-185393328D02*
X181672312Y-185393328D01*
X181672312Y-185393328D02*
X181815169Y-185464757D01*
X181815169Y-185464757D02*
X181886598Y-185607614D01*
X181886598Y-185607614D02*
X181886598Y-185750471D01*
X181886598Y-185750471D02*
X181172312Y-185893328D01*
X182529454Y-186250471D02*
X182600883Y-186321900D01*
X182600883Y-186321900D02*
X182529454Y-186393328D01*
X182529454Y-186393328D02*
X182458026Y-186321900D01*
X182458026Y-186321900D02*
X182529454Y-186250471D01*
X182529454Y-186250471D02*
X182529454Y-186393328D01*
X182529454Y-185464757D02*
X182600883Y-185536185D01*
X182600883Y-185536185D02*
X182529454Y-185607614D01*
X182529454Y-185607614D02*
X182458026Y-185536185D01*
X182458026Y-185536185D02*
X182529454Y-185464757D01*
X182529454Y-185464757D02*
X182529454Y-185607614D01*
X184386597Y-186393328D02*
X184386597Y-185393328D01*
X184386597Y-185679042D02*
X184458026Y-185536185D01*
X184458026Y-185536185D02*
X184529455Y-185464757D01*
X184529455Y-185464757D02*
X184672312Y-185393328D01*
X184672312Y-185393328D02*
X184815169Y-185393328D01*
X185958026Y-186393328D02*
X185958026Y-185607614D01*
X185958026Y-185607614D02*
X185886597Y-185464757D01*
X185886597Y-185464757D02*
X185743740Y-185393328D01*
X185743740Y-185393328D02*
X185458026Y-185393328D01*
X185458026Y-185393328D02*
X185315168Y-185464757D01*
X185958026Y-186321900D02*
X185815168Y-186393328D01*
X185815168Y-186393328D02*
X185458026Y-186393328D01*
X185458026Y-186393328D02*
X185315168Y-186321900D01*
X185315168Y-186321900D02*
X185243740Y-186179042D01*
X185243740Y-186179042D02*
X185243740Y-186036185D01*
X185243740Y-186036185D02*
X185315168Y-185893328D01*
X185315168Y-185893328D02*
X185458026Y-185821900D01*
X185458026Y-185821900D02*
X185815168Y-185821900D01*
X185815168Y-185821900D02*
X185958026Y-185750471D01*
X186600883Y-186321900D02*
X186743740Y-186393328D01*
X186743740Y-186393328D02*
X187029454Y-186393328D01*
X187029454Y-186393328D02*
X187172311Y-186321900D01*
X187172311Y-186321900D02*
X187243740Y-186179042D01*
X187243740Y-186179042D02*
X187243740Y-186107614D01*
X187243740Y-186107614D02*
X187172311Y-185964757D01*
X187172311Y-185964757D02*
X187029454Y-185893328D01*
X187029454Y-185893328D02*
X186815169Y-185893328D01*
X186815169Y-185893328D02*
X186672311Y-185821900D01*
X186672311Y-185821900D02*
X186600883Y-185679042D01*
X186600883Y-185679042D02*
X186600883Y-185607614D01*
X186600883Y-185607614D02*
X186672311Y-185464757D01*
X186672311Y-185464757D02*
X186815169Y-185393328D01*
X186815169Y-185393328D02*
X187029454Y-185393328D01*
X187029454Y-185393328D02*
X187172311Y-185464757D01*
X187886597Y-185393328D02*
X187886597Y-186893328D01*
X187886597Y-185464757D02*
X188029455Y-185393328D01*
X188029455Y-185393328D02*
X188315169Y-185393328D01*
X188315169Y-185393328D02*
X188458026Y-185464757D01*
X188458026Y-185464757D02*
X188529455Y-185536185D01*
X188529455Y-185536185D02*
X188600883Y-185679042D01*
X188600883Y-185679042D02*
X188600883Y-186107614D01*
X188600883Y-186107614D02*
X188529455Y-186250471D01*
X188529455Y-186250471D02*
X188458026Y-186321900D01*
X188458026Y-186321900D02*
X188315169Y-186393328D01*
X188315169Y-186393328D02*
X188029455Y-186393328D01*
X188029455Y-186393328D02*
X187886597Y-186321900D01*
X189243740Y-186393328D02*
X189243740Y-184893328D01*
X189243740Y-185464757D02*
X189386598Y-185393328D01*
X189386598Y-185393328D02*
X189672312Y-185393328D01*
X189672312Y-185393328D02*
X189815169Y-185464757D01*
X189815169Y-185464757D02*
X189886598Y-185536185D01*
X189886598Y-185536185D02*
X189958026Y-185679042D01*
X189958026Y-185679042D02*
X189958026Y-186107614D01*
X189958026Y-186107614D02*
X189886598Y-186250471D01*
X189886598Y-186250471D02*
X189815169Y-186321900D01*
X189815169Y-186321900D02*
X189672312Y-186393328D01*
X189672312Y-186393328D02*
X189386598Y-186393328D01*
X189386598Y-186393328D02*
X189243740Y-186321900D01*
X191172312Y-186321900D02*
X191029455Y-186393328D01*
X191029455Y-186393328D02*
X190743741Y-186393328D01*
X190743741Y-186393328D02*
X190600883Y-186321900D01*
X190600883Y-186321900D02*
X190529455Y-186179042D01*
X190529455Y-186179042D02*
X190529455Y-185607614D01*
X190529455Y-185607614D02*
X190600883Y-185464757D01*
X190600883Y-185464757D02*
X190743741Y-185393328D01*
X190743741Y-185393328D02*
X191029455Y-185393328D01*
X191029455Y-185393328D02*
X191172312Y-185464757D01*
X191172312Y-185464757D02*
X191243741Y-185607614D01*
X191243741Y-185607614D02*
X191243741Y-185750471D01*
X191243741Y-185750471D02*
X190529455Y-185893328D01*
X191886597Y-186393328D02*
X191886597Y-185393328D01*
X191886597Y-185679042D02*
X191958026Y-185536185D01*
X191958026Y-185536185D02*
X192029455Y-185464757D01*
X192029455Y-185464757D02*
X192172312Y-185393328D01*
X192172312Y-185393328D02*
X192315169Y-185393328D01*
X192815168Y-186393328D02*
X192815168Y-185393328D01*
X192815168Y-185679042D02*
X192886597Y-185536185D01*
X192886597Y-185536185D02*
X192958026Y-185464757D01*
X192958026Y-185464757D02*
X193100883Y-185393328D01*
X193100883Y-185393328D02*
X193243740Y-185393328D01*
X193600882Y-185393328D02*
X193958025Y-186393328D01*
X194315168Y-185393328D02*
X193958025Y-186393328D01*
X193958025Y-186393328D02*
X193815168Y-186750471D01*
X193815168Y-186750471D02*
X193743739Y-186821900D01*
X193743739Y-186821900D02*
X193600882Y-186893328D01*
X194886596Y-185393328D02*
X194886596Y-186893328D01*
X194886596Y-185464757D02*
X195029454Y-185393328D01*
X195029454Y-185393328D02*
X195315168Y-185393328D01*
X195315168Y-185393328D02*
X195458025Y-185464757D01*
X195458025Y-185464757D02*
X195529454Y-185536185D01*
X195529454Y-185536185D02*
X195600882Y-185679042D01*
X195600882Y-185679042D02*
X195600882Y-186107614D01*
X195600882Y-186107614D02*
X195529454Y-186250471D01*
X195529454Y-186250471D02*
X195458025Y-186321900D01*
X195458025Y-186321900D02*
X195315168Y-186393328D01*
X195315168Y-186393328D02*
X195029454Y-186393328D01*
X195029454Y-186393328D02*
X194886596Y-186321900D01*
X196243739Y-186393328D02*
X196243739Y-185393328D01*
X196243739Y-184893328D02*
X196172311Y-184964757D01*
X196172311Y-184964757D02*
X196243739Y-185036185D01*
X196243739Y-185036185D02*
X196315168Y-184964757D01*
X196315168Y-184964757D02*
X196243739Y-184893328D01*
X196243739Y-184893328D02*
X196243739Y-185036185D01*
X196600883Y-186536185D02*
X197743740Y-186536185D01*
X197958025Y-185393328D02*
X198743740Y-185393328D01*
X198743740Y-185393328D02*
X197958025Y-186393328D01*
X197958025Y-186393328D02*
X198743740Y-186393328D01*
X199886597Y-186321900D02*
X199743740Y-186393328D01*
X199743740Y-186393328D02*
X199458026Y-186393328D01*
X199458026Y-186393328D02*
X199315168Y-186321900D01*
X199315168Y-186321900D02*
X199243740Y-186179042D01*
X199243740Y-186179042D02*
X199243740Y-185607614D01*
X199243740Y-185607614D02*
X199315168Y-185464757D01*
X199315168Y-185464757D02*
X199458026Y-185393328D01*
X199458026Y-185393328D02*
X199743740Y-185393328D01*
X199743740Y-185393328D02*
X199886597Y-185464757D01*
X199886597Y-185464757D02*
X199958026Y-185607614D01*
X199958026Y-185607614D02*
X199958026Y-185750471D01*
X199958026Y-185750471D02*
X199243740Y-185893328D01*
X200600882Y-186393328D02*
X200600882Y-185393328D01*
X200600882Y-185679042D02*
X200672311Y-185536185D01*
X200672311Y-185536185D02*
X200743740Y-185464757D01*
X200743740Y-185464757D02*
X200886597Y-185393328D01*
X200886597Y-185393328D02*
X201029454Y-185393328D01*
X201743739Y-186393328D02*
X201600882Y-186321900D01*
X201600882Y-186321900D02*
X201529453Y-186250471D01*
X201529453Y-186250471D02*
X201458025Y-186107614D01*
X201458025Y-186107614D02*
X201458025Y-185679042D01*
X201458025Y-185679042D02*
X201529453Y-185536185D01*
X201529453Y-185536185D02*
X201600882Y-185464757D01*
X201600882Y-185464757D02*
X201743739Y-185393328D01*
X201743739Y-185393328D02*
X201958025Y-185393328D01*
X201958025Y-185393328D02*
X202100882Y-185464757D01*
X202100882Y-185464757D02*
X202172311Y-185536185D01*
X202172311Y-185536185D02*
X202243739Y-185679042D01*
X202243739Y-185679042D02*
X202243739Y-186107614D01*
X202243739Y-186107614D02*
X202172311Y-186250471D01*
X202172311Y-186250471D02*
X202100882Y-186321900D01*
X202100882Y-186321900D02*
X201958025Y-186393328D01*
X201958025Y-186393328D02*
X201743739Y-186393328D01*
X202743739Y-185393328D02*
X203029454Y-186393328D01*
X203029454Y-186393328D02*
X203315168Y-185679042D01*
X203315168Y-185679042D02*
X203600882Y-186393328D01*
X203600882Y-186393328D02*
X203886596Y-185393328D01*
X204100883Y-186536185D02*
X205243740Y-186536185D01*
X206243740Y-185393328D02*
X206243740Y-186393328D01*
X205600882Y-185393328D02*
X205600882Y-186179042D01*
X205600882Y-186179042D02*
X205672311Y-186321900D01*
X205672311Y-186321900D02*
X205815168Y-186393328D01*
X205815168Y-186393328D02*
X206029454Y-186393328D01*
X206029454Y-186393328D02*
X206172311Y-186321900D01*
X206172311Y-186321900D02*
X206243740Y-186250471D01*
X206958025Y-186393328D02*
X206958025Y-184893328D01*
X207600883Y-186393328D02*
X207600883Y-185607614D01*
X207600883Y-185607614D02*
X207529454Y-185464757D01*
X207529454Y-185464757D02*
X207386597Y-185393328D01*
X207386597Y-185393328D02*
X207172311Y-185393328D01*
X207172311Y-185393328D02*
X207029454Y-185464757D01*
X207029454Y-185464757D02*
X206958025Y-185536185D01*
X208958026Y-186393328D02*
X208958026Y-185607614D01*
X208958026Y-185607614D02*
X208886597Y-185464757D01*
X208886597Y-185464757D02*
X208743740Y-185393328D01*
X208743740Y-185393328D02*
X208458026Y-185393328D01*
X208458026Y-185393328D02*
X208315168Y-185464757D01*
X208958026Y-186321900D02*
X208815168Y-186393328D01*
X208815168Y-186393328D02*
X208458026Y-186393328D01*
X208458026Y-186393328D02*
X208315168Y-186321900D01*
X208315168Y-186321900D02*
X208243740Y-186179042D01*
X208243740Y-186179042D02*
X208243740Y-186036185D01*
X208243740Y-186036185D02*
X208315168Y-185893328D01*
X208315168Y-185893328D02*
X208458026Y-185821900D01*
X208458026Y-185821900D02*
X208815168Y-185821900D01*
X208815168Y-185821900D02*
X208958026Y-185750471D01*
X209458026Y-185393328D02*
X210029454Y-185393328D01*
X209672311Y-184893328D02*
X209672311Y-186179042D01*
X209672311Y-186179042D02*
X209743740Y-186321900D01*
X209743740Y-186321900D02*
X209886597Y-186393328D01*
X209886597Y-186393328D02*
X210029454Y-186393328D01*
X210529454Y-186250471D02*
X210600883Y-186321900D01*
X210600883Y-186321900D02*
X210529454Y-186393328D01*
X210529454Y-186393328D02*
X210458026Y-186321900D01*
X210458026Y-186321900D02*
X210529454Y-186250471D01*
X210529454Y-186250471D02*
X210529454Y-186393328D01*
X211243740Y-186393328D02*
X211243740Y-184893328D01*
X211386598Y-185821900D02*
X211815169Y-186393328D01*
X211815169Y-185393328D02*
X211243740Y-185964757D01*
X212458026Y-186393328D02*
X212458026Y-185393328D01*
X212458026Y-184893328D02*
X212386598Y-184964757D01*
X212386598Y-184964757D02*
X212458026Y-185036185D01*
X212458026Y-185036185D02*
X212529455Y-184964757D01*
X212529455Y-184964757D02*
X212458026Y-184893328D01*
X212458026Y-184893328D02*
X212458026Y-185036185D01*
X213815170Y-186321900D02*
X213672312Y-186393328D01*
X213672312Y-186393328D02*
X213386598Y-186393328D01*
X213386598Y-186393328D02*
X213243741Y-186321900D01*
X213243741Y-186321900D02*
X213172312Y-186250471D01*
X213172312Y-186250471D02*
X213100884Y-186107614D01*
X213100884Y-186107614D02*
X213100884Y-185679042D01*
X213100884Y-185679042D02*
X213172312Y-185536185D01*
X213172312Y-185536185D02*
X213243741Y-185464757D01*
X213243741Y-185464757D02*
X213386598Y-185393328D01*
X213386598Y-185393328D02*
X213672312Y-185393328D01*
X213672312Y-185393328D02*
X213815170Y-185464757D01*
X215100884Y-186393328D02*
X215100884Y-185607614D01*
X215100884Y-185607614D02*
X215029455Y-185464757D01*
X215029455Y-185464757D02*
X214886598Y-185393328D01*
X214886598Y-185393328D02*
X214600884Y-185393328D01*
X214600884Y-185393328D02*
X214458026Y-185464757D01*
X215100884Y-186321900D02*
X214958026Y-186393328D01*
X214958026Y-186393328D02*
X214600884Y-186393328D01*
X214600884Y-186393328D02*
X214458026Y-186321900D01*
X214458026Y-186321900D02*
X214386598Y-186179042D01*
X214386598Y-186179042D02*
X214386598Y-186036185D01*
X214386598Y-186036185D02*
X214458026Y-185893328D01*
X214458026Y-185893328D02*
X214600884Y-185821900D01*
X214600884Y-185821900D02*
X214958026Y-185821900D01*
X214958026Y-185821900D02*
X215100884Y-185750471D01*
X216458027Y-186393328D02*
X216458027Y-184893328D01*
X216458027Y-186321900D02*
X216315169Y-186393328D01*
X216315169Y-186393328D02*
X216029455Y-186393328D01*
X216029455Y-186393328D02*
X215886598Y-186321900D01*
X215886598Y-186321900D02*
X215815169Y-186250471D01*
X215815169Y-186250471D02*
X215743741Y-186107614D01*
X215743741Y-186107614D02*
X215743741Y-185679042D01*
X215743741Y-185679042D02*
X215815169Y-185536185D01*
X215815169Y-185536185D02*
X215886598Y-185464757D01*
X215886598Y-185464757D02*
X216029455Y-185393328D01*
X216029455Y-185393328D02*
X216315169Y-185393328D01*
X216315169Y-185393328D02*
X216458027Y-185464757D01*
X216815170Y-186536185D02*
X217958027Y-186536185D01*
X218315169Y-185393328D02*
X218315169Y-186893328D01*
X218315169Y-185464757D02*
X218458027Y-185393328D01*
X218458027Y-185393328D02*
X218743741Y-185393328D01*
X218743741Y-185393328D02*
X218886598Y-185464757D01*
X218886598Y-185464757D02*
X218958027Y-185536185D01*
X218958027Y-185536185D02*
X219029455Y-185679042D01*
X219029455Y-185679042D02*
X219029455Y-186107614D01*
X219029455Y-186107614D02*
X218958027Y-186250471D01*
X218958027Y-186250471D02*
X218886598Y-186321900D01*
X218886598Y-186321900D02*
X218743741Y-186393328D01*
X218743741Y-186393328D02*
X218458027Y-186393328D01*
X218458027Y-186393328D02*
X218315169Y-186321900D01*
X220315170Y-186321900D02*
X220172312Y-186393328D01*
X220172312Y-186393328D02*
X219886598Y-186393328D01*
X219886598Y-186393328D02*
X219743741Y-186321900D01*
X219743741Y-186321900D02*
X219672312Y-186250471D01*
X219672312Y-186250471D02*
X219600884Y-186107614D01*
X219600884Y-186107614D02*
X219600884Y-185679042D01*
X219600884Y-185679042D02*
X219672312Y-185536185D01*
X219672312Y-185536185D02*
X219743741Y-185464757D01*
X219743741Y-185464757D02*
X219886598Y-185393328D01*
X219886598Y-185393328D02*
X220172312Y-185393328D01*
X220172312Y-185393328D02*
X220315170Y-185464757D01*
X220958026Y-186393328D02*
X220958026Y-184893328D01*
X220958026Y-185464757D02*
X221100884Y-185393328D01*
X221100884Y-185393328D02*
X221386598Y-185393328D01*
X221386598Y-185393328D02*
X221529455Y-185464757D01*
X221529455Y-185464757D02*
X221600884Y-185536185D01*
X221600884Y-185536185D02*
X221672312Y-185679042D01*
X221672312Y-185679042D02*
X221672312Y-186107614D01*
X221672312Y-186107614D02*
X221600884Y-186250471D01*
X221600884Y-186250471D02*
X221529455Y-186321900D01*
X221529455Y-186321900D02*
X221386598Y-186393328D01*
X221386598Y-186393328D02*
X221100884Y-186393328D01*
X221100884Y-186393328D02*
X220958026Y-186321900D01*
D10*
D11*
X177002200Y-181507200D02*
X285002200Y-181507200D01*
D10*
D11*
X178386598Y-183621900D02*
X178600884Y-183693328D01*
X178600884Y-183693328D02*
X178958026Y-183693328D01*
X178958026Y-183693328D02*
X179100884Y-183621900D01*
X179100884Y-183621900D02*
X179172312Y-183550471D01*
X179172312Y-183550471D02*
X179243741Y-183407614D01*
X179243741Y-183407614D02*
X179243741Y-183264757D01*
X179243741Y-183264757D02*
X179172312Y-183121900D01*
X179172312Y-183121900D02*
X179100884Y-183050471D01*
X179100884Y-183050471D02*
X178958026Y-182979042D01*
X178958026Y-182979042D02*
X178672312Y-182907614D01*
X178672312Y-182907614D02*
X178529455Y-182836185D01*
X178529455Y-182836185D02*
X178458026Y-182764757D01*
X178458026Y-182764757D02*
X178386598Y-182621900D01*
X178386598Y-182621900D02*
X178386598Y-182479042D01*
X178386598Y-182479042D02*
X178458026Y-182336185D01*
X178458026Y-182336185D02*
X178529455Y-182264757D01*
X178529455Y-182264757D02*
X178672312Y-182193328D01*
X178672312Y-182193328D02*
X179029455Y-182193328D01*
X179029455Y-182193328D02*
X179243741Y-182264757D01*
X179886597Y-183693328D02*
X179886597Y-182193328D01*
X180529455Y-183693328D02*
X180529455Y-182907614D01*
X180529455Y-182907614D02*
X180458026Y-182764757D01*
X180458026Y-182764757D02*
X180315169Y-182693328D01*
X180315169Y-182693328D02*
X180100883Y-182693328D01*
X180100883Y-182693328D02*
X179958026Y-182764757D01*
X179958026Y-182764757D02*
X179886597Y-182836185D01*
X181815169Y-183621900D02*
X181672312Y-183693328D01*
X181672312Y-183693328D02*
X181386598Y-183693328D01*
X181386598Y-183693328D02*
X181243740Y-183621900D01*
X181243740Y-183621900D02*
X181172312Y-183479042D01*
X181172312Y-183479042D02*
X181172312Y-182907614D01*
X181172312Y-182907614D02*
X181243740Y-182764757D01*
X181243740Y-182764757D02*
X181386598Y-182693328D01*
X181386598Y-182693328D02*
X181672312Y-182693328D01*
X181672312Y-182693328D02*
X181815169Y-182764757D01*
X181815169Y-182764757D02*
X181886598Y-182907614D01*
X181886598Y-182907614D02*
X181886598Y-183050471D01*
X181886598Y-183050471D02*
X181172312Y-183193328D01*
X183100883Y-183621900D02*
X182958026Y-183693328D01*
X182958026Y-183693328D02*
X182672312Y-183693328D01*
X182672312Y-183693328D02*
X182529454Y-183621900D01*
X182529454Y-183621900D02*
X182458026Y-183479042D01*
X182458026Y-183479042D02*
X182458026Y-182907614D01*
X182458026Y-182907614D02*
X182529454Y-182764757D01*
X182529454Y-182764757D02*
X182672312Y-182693328D01*
X182672312Y-182693328D02*
X182958026Y-182693328D01*
X182958026Y-182693328D02*
X183100883Y-182764757D01*
X183100883Y-182764757D02*
X183172312Y-182907614D01*
X183172312Y-182907614D02*
X183172312Y-183050471D01*
X183172312Y-183050471D02*
X182458026Y-183193328D01*
X183600883Y-182693328D02*
X184172311Y-182693328D01*
X183815168Y-182193328D02*
X183815168Y-183479042D01*
X183815168Y-183479042D02*
X183886597Y-183621900D01*
X183886597Y-183621900D02*
X184029454Y-183693328D01*
X184029454Y-183693328D02*
X184172311Y-183693328D01*
X184672311Y-183550471D02*
X184743740Y-183621900D01*
X184743740Y-183621900D02*
X184672311Y-183693328D01*
X184672311Y-183693328D02*
X184600883Y-183621900D01*
X184600883Y-183621900D02*
X184672311Y-183550471D01*
X184672311Y-183550471D02*
X184672311Y-183693328D01*
X184672311Y-182764757D02*
X184743740Y-182836185D01*
X184743740Y-182836185D02*
X184672311Y-182907614D01*
X184672311Y-182907614D02*
X184600883Y-182836185D01*
X184600883Y-182836185D02*
X184672311Y-182764757D01*
X184672311Y-182764757D02*
X184672311Y-182907614D01*
D10*
D12*
D10*
D11*
X178243741Y-176193328D02*
X179100884Y-176193328D01*
X178672312Y-177693328D02*
X178672312Y-176193328D01*
X179600883Y-177693328D02*
X179600883Y-176193328D01*
X180243741Y-177693328D02*
X180243741Y-176907614D01*
X180243741Y-176907614D02*
X180172312Y-176764757D01*
X180172312Y-176764757D02*
X180029455Y-176693328D01*
X180029455Y-176693328D02*
X179815169Y-176693328D01*
X179815169Y-176693328D02*
X179672312Y-176764757D01*
X179672312Y-176764757D02*
X179600883Y-176836185D01*
X180958026Y-177693328D02*
X180958026Y-176693328D01*
X180958026Y-176193328D02*
X180886598Y-176264757D01*
X180886598Y-176264757D02*
X180958026Y-176336185D01*
X180958026Y-176336185D02*
X181029455Y-176264757D01*
X181029455Y-176264757D02*
X180958026Y-176193328D01*
X180958026Y-176193328D02*
X180958026Y-176336185D01*
X181600884Y-177621900D02*
X181743741Y-177693328D01*
X181743741Y-177693328D02*
X182029455Y-177693328D01*
X182029455Y-177693328D02*
X182172312Y-177621900D01*
X182172312Y-177621900D02*
X182243741Y-177479042D01*
X182243741Y-177479042D02*
X182243741Y-177407614D01*
X182243741Y-177407614D02*
X182172312Y-177264757D01*
X182172312Y-177264757D02*
X182029455Y-177193328D01*
X182029455Y-177193328D02*
X181815170Y-177193328D01*
X181815170Y-177193328D02*
X181672312Y-177121900D01*
X181672312Y-177121900D02*
X181600884Y-176979042D01*
X181600884Y-176979042D02*
X181600884Y-176907614D01*
X181600884Y-176907614D02*
X181672312Y-176764757D01*
X181672312Y-176764757D02*
X181815170Y-176693328D01*
X181815170Y-176693328D02*
X182029455Y-176693328D01*
X182029455Y-176693328D02*
X182172312Y-176764757D01*
X184029455Y-177693328D02*
X184029455Y-176193328D01*
X184029455Y-176193328D02*
X184600884Y-176193328D01*
X184600884Y-176193328D02*
X184743741Y-176264757D01*
X184743741Y-176264757D02*
X184815170Y-176336185D01*
X184815170Y-176336185D02*
X184886598Y-176479042D01*
X184886598Y-176479042D02*
X184886598Y-176693328D01*
X184886598Y-176693328D02*
X184815170Y-176836185D01*
X184815170Y-176836185D02*
X184743741Y-176907614D01*
X184743741Y-176907614D02*
X184600884Y-176979042D01*
X184600884Y-176979042D02*
X184029455Y-176979042D01*
X186386598Y-177550471D02*
X186315170Y-177621900D01*
X186315170Y-177621900D02*
X186100884Y-177693328D01*
X186100884Y-177693328D02*
X185958027Y-177693328D01*
X185958027Y-177693328D02*
X185743741Y-177621900D01*
X185743741Y-177621900D02*
X185600884Y-177479042D01*
X185600884Y-177479042D02*
X185529455Y-177336185D01*
X185529455Y-177336185D02*
X185458027Y-177050471D01*
X185458027Y-177050471D02*
X185458027Y-176836185D01*
X185458027Y-176836185D02*
X185529455Y-176550471D01*
X185529455Y-176550471D02*
X185600884Y-176407614D01*
X185600884Y-176407614D02*
X185743741Y-176264757D01*
X185743741Y-176264757D02*
X185958027Y-176193328D01*
X185958027Y-176193328D02*
X186100884Y-176193328D01*
X186100884Y-176193328D02*
X186315170Y-176264757D01*
X186315170Y-176264757D02*
X186386598Y-176336185D01*
X187529455Y-176907614D02*
X187743741Y-176979042D01*
X187743741Y-176979042D02*
X187815170Y-177050471D01*
X187815170Y-177050471D02*
X187886598Y-177193328D01*
X187886598Y-177193328D02*
X187886598Y-177407614D01*
X187886598Y-177407614D02*
X187815170Y-177550471D01*
X187815170Y-177550471D02*
X187743741Y-177621900D01*
X187743741Y-177621900D02*
X187600884Y-177693328D01*
X187600884Y-177693328D02*
X187029455Y-177693328D01*
X187029455Y-177693328D02*
X187029455Y-176193328D01*
X187029455Y-176193328D02*
X187529455Y-176193328D01*
X187529455Y-176193328D02*
X187672313Y-176264757D01*
X187672313Y-176264757D02*
X187743741Y-176336185D01*
X187743741Y-176336185D02*
X187815170Y-176479042D01*
X187815170Y-176479042D02*
X187815170Y-176621900D01*
X187815170Y-176621900D02*
X187743741Y-176764757D01*
X187743741Y-176764757D02*
X187672313Y-176836185D01*
X187672313Y-176836185D02*
X187529455Y-176907614D01*
X187529455Y-176907614D02*
X187029455Y-176907614D01*
X190315170Y-177693328D02*
X190315170Y-176193328D01*
X190315170Y-177621900D02*
X190172312Y-177693328D01*
X190172312Y-177693328D02*
X189886598Y-177693328D01*
X189886598Y-177693328D02*
X189743741Y-177621900D01*
X189743741Y-177621900D02*
X189672312Y-177550471D01*
X189672312Y-177550471D02*
X189600884Y-177407614D01*
X189600884Y-177407614D02*
X189600884Y-176979042D01*
X189600884Y-176979042D02*
X189672312Y-176836185D01*
X189672312Y-176836185D02*
X189743741Y-176764757D01*
X189743741Y-176764757D02*
X189886598Y-176693328D01*
X189886598Y-176693328D02*
X190172312Y-176693328D01*
X190172312Y-176693328D02*
X190315170Y-176764757D01*
X191600884Y-177621900D02*
X191458027Y-177693328D01*
X191458027Y-177693328D02*
X191172313Y-177693328D01*
X191172313Y-177693328D02*
X191029455Y-177621900D01*
X191029455Y-177621900D02*
X190958027Y-177479042D01*
X190958027Y-177479042D02*
X190958027Y-176907614D01*
X190958027Y-176907614D02*
X191029455Y-176764757D01*
X191029455Y-176764757D02*
X191172313Y-176693328D01*
X191172313Y-176693328D02*
X191458027Y-176693328D01*
X191458027Y-176693328D02*
X191600884Y-176764757D01*
X191600884Y-176764757D02*
X191672313Y-176907614D01*
X191672313Y-176907614D02*
X191672313Y-177050471D01*
X191672313Y-177050471D02*
X190958027Y-177193328D01*
X192243741Y-177621900D02*
X192386598Y-177693328D01*
X192386598Y-177693328D02*
X192672312Y-177693328D01*
X192672312Y-177693328D02*
X192815169Y-177621900D01*
X192815169Y-177621900D02*
X192886598Y-177479042D01*
X192886598Y-177479042D02*
X192886598Y-177407614D01*
X192886598Y-177407614D02*
X192815169Y-177264757D01*
X192815169Y-177264757D02*
X192672312Y-177193328D01*
X192672312Y-177193328D02*
X192458027Y-177193328D01*
X192458027Y-177193328D02*
X192315169Y-177121900D01*
X192315169Y-177121900D02*
X192243741Y-176979042D01*
X192243741Y-176979042D02*
X192243741Y-176907614D01*
X192243741Y-176907614D02*
X192315169Y-176764757D01*
X192315169Y-176764757D02*
X192458027Y-176693328D01*
X192458027Y-176693328D02*
X192672312Y-176693328D01*
X192672312Y-176693328D02*
X192815169Y-176764757D01*
X193529455Y-177693328D02*
X193529455Y-176693328D01*
X193529455Y-176193328D02*
X193458027Y-176264757D01*
X193458027Y-176264757D02*
X193529455Y-176336185D01*
X193529455Y-176336185D02*
X193600884Y-176264757D01*
X193600884Y-176264757D02*
X193529455Y-176193328D01*
X193529455Y-176193328D02*
X193529455Y-176336185D01*
X194886599Y-176693328D02*
X194886599Y-177907614D01*
X194886599Y-177907614D02*
X194815170Y-178050471D01*
X194815170Y-178050471D02*
X194743741Y-178121900D01*
X194743741Y-178121900D02*
X194600884Y-178193328D01*
X194600884Y-178193328D02*
X194386599Y-178193328D01*
X194386599Y-178193328D02*
X194243741Y-178121900D01*
X194886599Y-177621900D02*
X194743741Y-177693328D01*
X194743741Y-177693328D02*
X194458027Y-177693328D01*
X194458027Y-177693328D02*
X194315170Y-177621900D01*
X194315170Y-177621900D02*
X194243741Y-177550471D01*
X194243741Y-177550471D02*
X194172313Y-177407614D01*
X194172313Y-177407614D02*
X194172313Y-176979042D01*
X194172313Y-176979042D02*
X194243741Y-176836185D01*
X194243741Y-176836185D02*
X194315170Y-176764757D01*
X194315170Y-176764757D02*
X194458027Y-176693328D01*
X194458027Y-176693328D02*
X194743741Y-176693328D01*
X194743741Y-176693328D02*
X194886599Y-176764757D01*
X195600884Y-176693328D02*
X195600884Y-177693328D01*
X195600884Y-176836185D02*
X195672313Y-176764757D01*
X195672313Y-176764757D02*
X195815170Y-176693328D01*
X195815170Y-176693328D02*
X196029456Y-176693328D01*
X196029456Y-176693328D02*
X196172313Y-176764757D01*
X196172313Y-176764757D02*
X196243742Y-176907614D01*
X196243742Y-176907614D02*
X196243742Y-177693328D01*
X198100884Y-177693328D02*
X198100884Y-176693328D01*
X198100884Y-176193328D02*
X198029456Y-176264757D01*
X198029456Y-176264757D02*
X198100884Y-176336185D01*
X198100884Y-176336185D02*
X198172313Y-176264757D01*
X198172313Y-176264757D02*
X198100884Y-176193328D01*
X198100884Y-176193328D02*
X198100884Y-176336185D01*
X198743742Y-177621900D02*
X198886599Y-177693328D01*
X198886599Y-177693328D02*
X199172313Y-177693328D01*
X199172313Y-177693328D02*
X199315170Y-177621900D01*
X199315170Y-177621900D02*
X199386599Y-177479042D01*
X199386599Y-177479042D02*
X199386599Y-177407614D01*
X199386599Y-177407614D02*
X199315170Y-177264757D01*
X199315170Y-177264757D02*
X199172313Y-177193328D01*
X199172313Y-177193328D02*
X198958028Y-177193328D01*
X198958028Y-177193328D02*
X198815170Y-177121900D01*
X198815170Y-177121900D02*
X198743742Y-176979042D01*
X198743742Y-176979042D02*
X198743742Y-176907614D01*
X198743742Y-176907614D02*
X198815170Y-176764757D01*
X198815170Y-176764757D02*
X198958028Y-176693328D01*
X198958028Y-176693328D02*
X199172313Y-176693328D01*
X199172313Y-176693328D02*
X199315170Y-176764757D01*
X201386599Y-177693328D02*
X201243742Y-177621900D01*
X201243742Y-177621900D02*
X201172313Y-177479042D01*
X201172313Y-177479042D02*
X201172313Y-176193328D01*
X201958027Y-177693328D02*
X201958027Y-176693328D01*
X201958027Y-176193328D02*
X201886599Y-176264757D01*
X201886599Y-176264757D02*
X201958027Y-176336185D01*
X201958027Y-176336185D02*
X202029456Y-176264757D01*
X202029456Y-176264757D02*
X201958027Y-176193328D01*
X201958027Y-176193328D02*
X201958027Y-176336185D01*
X203315171Y-177621900D02*
X203172313Y-177693328D01*
X203172313Y-177693328D02*
X202886599Y-177693328D01*
X202886599Y-177693328D02*
X202743742Y-177621900D01*
X202743742Y-177621900D02*
X202672313Y-177550471D01*
X202672313Y-177550471D02*
X202600885Y-177407614D01*
X202600885Y-177407614D02*
X202600885Y-176979042D01*
X202600885Y-176979042D02*
X202672313Y-176836185D01*
X202672313Y-176836185D02*
X202743742Y-176764757D01*
X202743742Y-176764757D02*
X202886599Y-176693328D01*
X202886599Y-176693328D02*
X203172313Y-176693328D01*
X203172313Y-176693328D02*
X203315171Y-176764757D01*
X204529456Y-177621900D02*
X204386599Y-177693328D01*
X204386599Y-177693328D02*
X204100885Y-177693328D01*
X204100885Y-177693328D02*
X203958027Y-177621900D01*
X203958027Y-177621900D02*
X203886599Y-177479042D01*
X203886599Y-177479042D02*
X203886599Y-176907614D01*
X203886599Y-176907614D02*
X203958027Y-176764757D01*
X203958027Y-176764757D02*
X204100885Y-176693328D01*
X204100885Y-176693328D02*
X204386599Y-176693328D01*
X204386599Y-176693328D02*
X204529456Y-176764757D01*
X204529456Y-176764757D02*
X204600885Y-176907614D01*
X204600885Y-176907614D02*
X204600885Y-177050471D01*
X204600885Y-177050471D02*
X203886599Y-177193328D01*
X205243741Y-176693328D02*
X205243741Y-177693328D01*
X205243741Y-176836185D02*
X205315170Y-176764757D01*
X205315170Y-176764757D02*
X205458027Y-176693328D01*
X205458027Y-176693328D02*
X205672313Y-176693328D01*
X205672313Y-176693328D02*
X205815170Y-176764757D01*
X205815170Y-176764757D02*
X205886599Y-176907614D01*
X205886599Y-176907614D02*
X205886599Y-177693328D01*
X206529456Y-177621900D02*
X206672313Y-177693328D01*
X206672313Y-177693328D02*
X206958027Y-177693328D01*
X206958027Y-177693328D02*
X207100884Y-177621900D01*
X207100884Y-177621900D02*
X207172313Y-177479042D01*
X207172313Y-177479042D02*
X207172313Y-177407614D01*
X207172313Y-177407614D02*
X207100884Y-177264757D01*
X207100884Y-177264757D02*
X206958027Y-177193328D01*
X206958027Y-177193328D02*
X206743742Y-177193328D01*
X206743742Y-177193328D02*
X206600884Y-177121900D01*
X206600884Y-177121900D02*
X206529456Y-176979042D01*
X206529456Y-176979042D02*
X206529456Y-176907614D01*
X206529456Y-176907614D02*
X206600884Y-176764757D01*
X206600884Y-176764757D02*
X206743742Y-176693328D01*
X206743742Y-176693328D02*
X206958027Y-176693328D01*
X206958027Y-176693328D02*
X207100884Y-176764757D01*
X208386599Y-177621900D02*
X208243742Y-177693328D01*
X208243742Y-177693328D02*
X207958028Y-177693328D01*
X207958028Y-177693328D02*
X207815170Y-177621900D01*
X207815170Y-177621900D02*
X207743742Y-177479042D01*
X207743742Y-177479042D02*
X207743742Y-176907614D01*
X207743742Y-176907614D02*
X207815170Y-176764757D01*
X207815170Y-176764757D02*
X207958028Y-176693328D01*
X207958028Y-176693328D02*
X208243742Y-176693328D01*
X208243742Y-176693328D02*
X208386599Y-176764757D01*
X208386599Y-176764757D02*
X208458028Y-176907614D01*
X208458028Y-176907614D02*
X208458028Y-177050471D01*
X208458028Y-177050471D02*
X207743742Y-177193328D01*
X209743742Y-177693328D02*
X209743742Y-176193328D01*
X209743742Y-177621900D02*
X209600884Y-177693328D01*
X209600884Y-177693328D02*
X209315170Y-177693328D01*
X209315170Y-177693328D02*
X209172313Y-177621900D01*
X209172313Y-177621900D02*
X209100884Y-177550471D01*
X209100884Y-177550471D02*
X209029456Y-177407614D01*
X209029456Y-177407614D02*
X209029456Y-176979042D01*
X209029456Y-176979042D02*
X209100884Y-176836185D01*
X209100884Y-176836185D02*
X209172313Y-176764757D01*
X209172313Y-176764757D02*
X209315170Y-176693328D01*
X209315170Y-176693328D02*
X209600884Y-176693328D01*
X209600884Y-176693328D02*
X209743742Y-176764757D01*
X212243742Y-176693328D02*
X212243742Y-177693328D01*
X211600884Y-176693328D02*
X211600884Y-177479042D01*
X211600884Y-177479042D02*
X211672313Y-177621900D01*
X211672313Y-177621900D02*
X211815170Y-177693328D01*
X211815170Y-177693328D02*
X212029456Y-177693328D01*
X212029456Y-177693328D02*
X212172313Y-177621900D01*
X212172313Y-177621900D02*
X212243742Y-177550471D01*
X212958027Y-176693328D02*
X212958027Y-177693328D01*
X212958027Y-176836185D02*
X213029456Y-176764757D01*
X213029456Y-176764757D02*
X213172313Y-176693328D01*
X213172313Y-176693328D02*
X213386599Y-176693328D01*
X213386599Y-176693328D02*
X213529456Y-176764757D01*
X213529456Y-176764757D02*
X213600885Y-176907614D01*
X213600885Y-176907614D02*
X213600885Y-177693328D01*
X214958028Y-177693328D02*
X214958028Y-176193328D01*
X214958028Y-177621900D02*
X214815170Y-177693328D01*
X214815170Y-177693328D02*
X214529456Y-177693328D01*
X214529456Y-177693328D02*
X214386599Y-177621900D01*
X214386599Y-177621900D02*
X214315170Y-177550471D01*
X214315170Y-177550471D02*
X214243742Y-177407614D01*
X214243742Y-177407614D02*
X214243742Y-176979042D01*
X214243742Y-176979042D02*
X214315170Y-176836185D01*
X214315170Y-176836185D02*
X214386599Y-176764757D01*
X214386599Y-176764757D02*
X214529456Y-176693328D01*
X214529456Y-176693328D02*
X214815170Y-176693328D01*
X214815170Y-176693328D02*
X214958028Y-176764757D01*
X216243742Y-177621900D02*
X216100885Y-177693328D01*
X216100885Y-177693328D02*
X215815171Y-177693328D01*
X215815171Y-177693328D02*
X215672313Y-177621900D01*
X215672313Y-177621900D02*
X215600885Y-177479042D01*
X215600885Y-177479042D02*
X215600885Y-176907614D01*
X215600885Y-176907614D02*
X215672313Y-176764757D01*
X215672313Y-176764757D02*
X215815171Y-176693328D01*
X215815171Y-176693328D02*
X216100885Y-176693328D01*
X216100885Y-176693328D02*
X216243742Y-176764757D01*
X216243742Y-176764757D02*
X216315171Y-176907614D01*
X216315171Y-176907614D02*
X216315171Y-177050471D01*
X216315171Y-177050471D02*
X215600885Y-177193328D01*
X216958027Y-177693328D02*
X216958027Y-176693328D01*
X216958027Y-176979042D02*
X217029456Y-176836185D01*
X217029456Y-176836185D02*
X217100885Y-176764757D01*
X217100885Y-176764757D02*
X217243742Y-176693328D01*
X217243742Y-176693328D02*
X217386599Y-176693328D01*
X219029455Y-177693328D02*
X219029455Y-176193328D01*
X219029455Y-176193328D02*
X219529455Y-177264757D01*
X219529455Y-177264757D02*
X220029455Y-176193328D01*
X220029455Y-176193328D02*
X220029455Y-177693328D01*
X220743741Y-177693328D02*
X220743741Y-176193328D01*
X221243742Y-176193328D02*
X222100885Y-176193328D01*
X221672313Y-177693328D02*
X221672313Y-176193328D01*
X224029456Y-176193328D02*
X224315170Y-176193328D01*
X224315170Y-176193328D02*
X224458027Y-176264757D01*
X224458027Y-176264757D02*
X224600884Y-176407614D01*
X224600884Y-176407614D02*
X224672313Y-176693328D01*
X224672313Y-176693328D02*
X224672313Y-177193328D01*
X224672313Y-177193328D02*
X224600884Y-177479042D01*
X224600884Y-177479042D02*
X224458027Y-177621900D01*
X224458027Y-177621900D02*
X224315170Y-177693328D01*
X224315170Y-177693328D02*
X224029456Y-177693328D01*
X224029456Y-177693328D02*
X223886599Y-177621900D01*
X223886599Y-177621900D02*
X223743741Y-177479042D01*
X223743741Y-177479042D02*
X223672313Y-177193328D01*
X223672313Y-177193328D02*
X223672313Y-176693328D01*
X223672313Y-176693328D02*
X223743741Y-176407614D01*
X223743741Y-176407614D02*
X223886599Y-176264757D01*
X223886599Y-176264757D02*
X224029456Y-176193328D01*
X225315170Y-176693328D02*
X225315170Y-178193328D01*
X225315170Y-176764757D02*
X225458028Y-176693328D01*
X225458028Y-176693328D02*
X225743742Y-176693328D01*
X225743742Y-176693328D02*
X225886599Y-176764757D01*
X225886599Y-176764757D02*
X225958028Y-176836185D01*
X225958028Y-176836185D02*
X226029456Y-176979042D01*
X226029456Y-176979042D02*
X226029456Y-177407614D01*
X226029456Y-177407614D02*
X225958028Y-177550471D01*
X225958028Y-177550471D02*
X225886599Y-177621900D01*
X225886599Y-177621900D02*
X225743742Y-177693328D01*
X225743742Y-177693328D02*
X225458028Y-177693328D01*
X225458028Y-177693328D02*
X225315170Y-177621900D01*
X227243742Y-177621900D02*
X227100885Y-177693328D01*
X227100885Y-177693328D02*
X226815171Y-177693328D01*
X226815171Y-177693328D02*
X226672313Y-177621900D01*
X226672313Y-177621900D02*
X226600885Y-177479042D01*
X226600885Y-177479042D02*
X226600885Y-176907614D01*
X226600885Y-176907614D02*
X226672313Y-176764757D01*
X226672313Y-176764757D02*
X226815171Y-176693328D01*
X226815171Y-176693328D02*
X227100885Y-176693328D01*
X227100885Y-176693328D02*
X227243742Y-176764757D01*
X227243742Y-176764757D02*
X227315171Y-176907614D01*
X227315171Y-176907614D02*
X227315171Y-177050471D01*
X227315171Y-177050471D02*
X226600885Y-177193328D01*
X227958027Y-176693328D02*
X227958027Y-177693328D01*
X227958027Y-176836185D02*
X228029456Y-176764757D01*
X228029456Y-176764757D02*
X228172313Y-176693328D01*
X228172313Y-176693328D02*
X228386599Y-176693328D01*
X228386599Y-176693328D02*
X228529456Y-176764757D01*
X228529456Y-176764757D02*
X228600885Y-176907614D01*
X228600885Y-176907614D02*
X228600885Y-177693328D01*
X230386599Y-177621900D02*
X230600885Y-177693328D01*
X230600885Y-177693328D02*
X230958027Y-177693328D01*
X230958027Y-177693328D02*
X231100885Y-177621900D01*
X231100885Y-177621900D02*
X231172313Y-177550471D01*
X231172313Y-177550471D02*
X231243742Y-177407614D01*
X231243742Y-177407614D02*
X231243742Y-177264757D01*
X231243742Y-177264757D02*
X231172313Y-177121900D01*
X231172313Y-177121900D02*
X231100885Y-177050471D01*
X231100885Y-177050471D02*
X230958027Y-176979042D01*
X230958027Y-176979042D02*
X230672313Y-176907614D01*
X230672313Y-176907614D02*
X230529456Y-176836185D01*
X230529456Y-176836185D02*
X230458027Y-176764757D01*
X230458027Y-176764757D02*
X230386599Y-176621900D01*
X230386599Y-176621900D02*
X230386599Y-176479042D01*
X230386599Y-176479042D02*
X230458027Y-176336185D01*
X230458027Y-176336185D02*
X230529456Y-176264757D01*
X230529456Y-176264757D02*
X230672313Y-176193328D01*
X230672313Y-176193328D02*
X231029456Y-176193328D01*
X231029456Y-176193328D02*
X231243742Y-176264757D01*
X232100884Y-177693328D02*
X231958027Y-177621900D01*
X231958027Y-177621900D02*
X231886598Y-177550471D01*
X231886598Y-177550471D02*
X231815170Y-177407614D01*
X231815170Y-177407614D02*
X231815170Y-176979042D01*
X231815170Y-176979042D02*
X231886598Y-176836185D01*
X231886598Y-176836185D02*
X231958027Y-176764757D01*
X231958027Y-176764757D02*
X232100884Y-176693328D01*
X232100884Y-176693328D02*
X232315170Y-176693328D01*
X232315170Y-176693328D02*
X232458027Y-176764757D01*
X232458027Y-176764757D02*
X232529456Y-176836185D01*
X232529456Y-176836185D02*
X232600884Y-176979042D01*
X232600884Y-176979042D02*
X232600884Y-177407614D01*
X232600884Y-177407614D02*
X232529456Y-177550471D01*
X232529456Y-177550471D02*
X232458027Y-177621900D01*
X232458027Y-177621900D02*
X232315170Y-177693328D01*
X232315170Y-177693328D02*
X232100884Y-177693328D01*
X233886599Y-176693328D02*
X233886599Y-177693328D01*
X233243741Y-176693328D02*
X233243741Y-177479042D01*
X233243741Y-177479042D02*
X233315170Y-177621900D01*
X233315170Y-177621900D02*
X233458027Y-177693328D01*
X233458027Y-177693328D02*
X233672313Y-177693328D01*
X233672313Y-177693328D02*
X233815170Y-177621900D01*
X233815170Y-177621900D02*
X233886599Y-177550471D01*
X234600884Y-177693328D02*
X234600884Y-176693328D01*
X234600884Y-176979042D02*
X234672313Y-176836185D01*
X234672313Y-176836185D02*
X234743742Y-176764757D01*
X234743742Y-176764757D02*
X234886599Y-176693328D01*
X234886599Y-176693328D02*
X235029456Y-176693328D01*
X236172313Y-177621900D02*
X236029455Y-177693328D01*
X236029455Y-177693328D02*
X235743741Y-177693328D01*
X235743741Y-177693328D02*
X235600884Y-177621900D01*
X235600884Y-177621900D02*
X235529455Y-177550471D01*
X235529455Y-177550471D02*
X235458027Y-177407614D01*
X235458027Y-177407614D02*
X235458027Y-176979042D01*
X235458027Y-176979042D02*
X235529455Y-176836185D01*
X235529455Y-176836185D02*
X235600884Y-176764757D01*
X235600884Y-176764757D02*
X235743741Y-176693328D01*
X235743741Y-176693328D02*
X236029455Y-176693328D01*
X236029455Y-176693328D02*
X236172313Y-176764757D01*
X237386598Y-177621900D02*
X237243741Y-177693328D01*
X237243741Y-177693328D02*
X236958027Y-177693328D01*
X236958027Y-177693328D02*
X236815169Y-177621900D01*
X236815169Y-177621900D02*
X236743741Y-177479042D01*
X236743741Y-177479042D02*
X236743741Y-176907614D01*
X236743741Y-176907614D02*
X236815169Y-176764757D01*
X236815169Y-176764757D02*
X236958027Y-176693328D01*
X236958027Y-176693328D02*
X237243741Y-176693328D01*
X237243741Y-176693328D02*
X237386598Y-176764757D01*
X237386598Y-176764757D02*
X237458027Y-176907614D01*
X237458027Y-176907614D02*
X237458027Y-177050471D01*
X237458027Y-177050471D02*
X236743741Y-177193328D01*
X239958026Y-177693328D02*
X239243740Y-177693328D01*
X239243740Y-177693328D02*
X239243740Y-176193328D01*
X240458026Y-177693328D02*
X240458026Y-176693328D01*
X240458026Y-176193328D02*
X240386598Y-176264757D01*
X240386598Y-176264757D02*
X240458026Y-176336185D01*
X240458026Y-176336185D02*
X240529455Y-176264757D01*
X240529455Y-176264757D02*
X240458026Y-176193328D01*
X240458026Y-176193328D02*
X240458026Y-176336185D01*
X241815170Y-177621900D02*
X241672312Y-177693328D01*
X241672312Y-177693328D02*
X241386598Y-177693328D01*
X241386598Y-177693328D02*
X241243741Y-177621900D01*
X241243741Y-177621900D02*
X241172312Y-177550471D01*
X241172312Y-177550471D02*
X241100884Y-177407614D01*
X241100884Y-177407614D02*
X241100884Y-176979042D01*
X241100884Y-176979042D02*
X241172312Y-176836185D01*
X241172312Y-176836185D02*
X241243741Y-176764757D01*
X241243741Y-176764757D02*
X241386598Y-176693328D01*
X241386598Y-176693328D02*
X241672312Y-176693328D01*
X241672312Y-176693328D02*
X241815170Y-176764757D01*
X243029455Y-177621900D02*
X242886598Y-177693328D01*
X242886598Y-177693328D02*
X242600884Y-177693328D01*
X242600884Y-177693328D02*
X242458026Y-177621900D01*
X242458026Y-177621900D02*
X242386598Y-177479042D01*
X242386598Y-177479042D02*
X242386598Y-176907614D01*
X242386598Y-176907614D02*
X242458026Y-176764757D01*
X242458026Y-176764757D02*
X242600884Y-176693328D01*
X242600884Y-176693328D02*
X242886598Y-176693328D01*
X242886598Y-176693328D02*
X243029455Y-176764757D01*
X243029455Y-176764757D02*
X243100884Y-176907614D01*
X243100884Y-176907614D02*
X243100884Y-177050471D01*
X243100884Y-177050471D02*
X242386598Y-177193328D01*
X243743740Y-176693328D02*
X243743740Y-177693328D01*
X243743740Y-176836185D02*
X243815169Y-176764757D01*
X243815169Y-176764757D02*
X243958026Y-176693328D01*
X243958026Y-176693328D02*
X244172312Y-176693328D01*
X244172312Y-176693328D02*
X244315169Y-176764757D01*
X244315169Y-176764757D02*
X244386598Y-176907614D01*
X244386598Y-176907614D02*
X244386598Y-177693328D01*
X245029455Y-177621900D02*
X245172312Y-177693328D01*
X245172312Y-177693328D02*
X245458026Y-177693328D01*
X245458026Y-177693328D02*
X245600883Y-177621900D01*
X245600883Y-177621900D02*
X245672312Y-177479042D01*
X245672312Y-177479042D02*
X245672312Y-177407614D01*
X245672312Y-177407614D02*
X245600883Y-177264757D01*
X245600883Y-177264757D02*
X245458026Y-177193328D01*
X245458026Y-177193328D02*
X245243741Y-177193328D01*
X245243741Y-177193328D02*
X245100883Y-177121900D01*
X245100883Y-177121900D02*
X245029455Y-176979042D01*
X245029455Y-176979042D02*
X245029455Y-176907614D01*
X245029455Y-176907614D02*
X245100883Y-176764757D01*
X245100883Y-176764757D02*
X245243741Y-176693328D01*
X245243741Y-176693328D02*
X245458026Y-176693328D01*
X245458026Y-176693328D02*
X245600883Y-176764757D01*
X246886598Y-177621900D02*
X246743741Y-177693328D01*
X246743741Y-177693328D02*
X246458027Y-177693328D01*
X246458027Y-177693328D02*
X246315169Y-177621900D01*
X246315169Y-177621900D02*
X246243741Y-177479042D01*
X246243741Y-177479042D02*
X246243741Y-176907614D01*
X246243741Y-176907614D02*
X246315169Y-176764757D01*
X246315169Y-176764757D02*
X246458027Y-176693328D01*
X246458027Y-176693328D02*
X246743741Y-176693328D01*
X246743741Y-176693328D02*
X246886598Y-176764757D01*
X246886598Y-176764757D02*
X246958027Y-176907614D01*
X246958027Y-176907614D02*
X246958027Y-177050471D01*
X246958027Y-177050471D02*
X246243741Y-177193328D01*
X247600883Y-177550471D02*
X247672312Y-177621900D01*
X247672312Y-177621900D02*
X247600883Y-177693328D01*
X247600883Y-177693328D02*
X247529455Y-177621900D01*
X247529455Y-177621900D02*
X247600883Y-177550471D01*
X247600883Y-177550471D02*
X247600883Y-177693328D01*
D10*
D11*
D10*
D11*
D10*
D11*
D10*
D11*
X197002200Y-191507200D02*
X197002200Y-194507200D01*
D10*
D11*
X261002200Y-191507200D02*
X261002200Y-198007200D01*
M02*
