M48
; DRILL file {KiCad 7.0.7} date Thu Apr  4 13:45:23 2024
; FORMAT={-:-/ absolute / inch / decimal}
; #@! TF.CreationDate,2024-04-04T13:45:23+09:00
; #@! TF.GenerationSoftware,Kicad,Pcbnew,7.0.7
; #@! TF.FileFunction,Plated,1,2,PTH
FMAT,2
INCH
; #@! TA.AperFunction,Plated,PTH,ComponentDrill
T1C0.0315
; #@! TA.AperFunction,Plated,PTH,ComponentDrill
T2C0.0374
; #@! TA.AperFunction,Plated,PTH,ComponentDrill
T3C0.0394
; #@! TA.AperFunction,Plated,PTH,ComponentDrill
T4C0.0433
%
G90
G05
T1
X5.805Y-3.9031
X5.805Y-4.2031
X5.905Y-3.9031
X5.905Y-4.2031
X6.005Y-3.9031
X6.005Y-4.2031
T2
X5.6629Y-4.3931
X5.7613Y-4.3931
X5.8598Y-4.3931
X5.9582Y-4.3931
X6.0566Y-4.3931
X6.155Y-4.3931
X6.2535Y-4.3931
X6.3519Y-4.3931
X6.4503Y-4.3931
X6.5487Y-4.3931
T3
X4.9568Y-3.6731
X4.9568Y-3.7731
X5.0568Y-3.6731
X5.0568Y-3.7731
X5.1568Y-3.6731
X5.1568Y-3.7731
X5.2568Y-3.6731
X5.2568Y-3.7731
X5.3568Y-3.6731
X5.3568Y-3.7731
X5.4568Y-3.6731
X5.4568Y-3.7731
X5.5568Y-3.6731
X5.5568Y-3.7731
X5.6568Y-3.6731
X5.6568Y-3.7731
X5.7568Y-3.6731
X5.7568Y-3.7731
X5.8568Y-3.6731
X5.8568Y-3.7731
X5.9568Y-3.6731
X5.9568Y-3.7731
X6.0568Y-3.6731
X6.0568Y-3.7731
X6.1568Y-3.6731
X6.1568Y-3.7731
X6.2568Y-3.6731
X6.2568Y-3.7731
X6.3568Y-3.6731
X6.3568Y-3.7731
X6.4568Y-3.6731
X6.4568Y-3.7731
X6.5568Y-3.6731
X6.5568Y-3.7731
X6.6568Y-3.6731
X6.6568Y-3.7731
X6.7568Y-3.6731
X6.7568Y-3.7731
X6.8568Y-3.6731
X6.8568Y-3.7731
T4
X4.7471Y-3.9546
X4.7471Y-4.1317
X5.003Y-3.9546
X5.003Y-4.1317
X5.0671Y-4.3946
X5.0671Y-4.5717
X5.1871Y-3.9531
X5.1871Y-4.1303
X5.323Y-4.3946
X5.323Y-4.5717
X5.443Y-3.9531
X5.443Y-4.1303
X6.2291Y-3.9246
X6.2291Y-4.1017
X6.485Y-3.9246
X6.485Y-4.1017
X6.6371Y-3.9246
X6.6371Y-4.1017
X6.755Y-4.246
X6.755Y-4.4231
X6.893Y-3.9246
X6.893Y-4.1017
X7.0109Y-4.246
X7.0109Y-4.4231
T0
M30
